M48
; DRILL file {KiCad 8.0.5-8.0.5-0~ubuntu22.04.1} date 2024-10-17T08:41:25+0200
; FORMAT={-:-/ absolute / inch / decimal}
; #@! TF.CreationDate,2024-10-17T08:41:25+02:00
; #@! TF.GenerationSoftware,Kicad,Pcbnew,8.0.5-8.0.5-0~ubuntu22.04.1
; #@! TF.FileFunction,MixedPlating,1,2
FMAT,2
INCH
; #@! TA.AperFunction,Plated,PTH,ViaDrill
T1C0.0236
; #@! TA.AperFunction,Plated,PTH,ComponentDrill
T2C0.0315
; #@! TA.AperFunction,Plated,PTH,ComponentDrill
T3C0.0394
; #@! TA.AperFunction,Plated,PTH,ComponentDrill
T4C0.1260
%
G90
G05
T1
X3.42Y-3.53
X3.435Y-2.985
X3.5922Y-3.3514
X3.5928Y-3.1414
X4.812Y-3.22
X5.5Y-3.565
T2
X3.7Y-3.075
X3.7Y-3.675
X3.7012Y-3.2244
X3.7012Y-3.5244
X3.8Y-3.075
X3.8Y-3.675
X3.8012Y-3.2244
X3.8012Y-3.5244
X3.9Y-3.075
X3.9Y-3.675
X3.9012Y-3.2244
X3.9012Y-3.5244
X4.0Y-3.075
X4.0Y-3.675
X4.0012Y-3.2244
X4.0012Y-3.5244
X4.1Y-3.075
X4.1Y-3.675
X4.1012Y-3.2244
X4.1012Y-3.5244
X4.2Y-3.075
X4.2Y-3.675
X4.2012Y-3.2244
X4.2012Y-3.5244
X4.3Y-3.075
X4.3Y-3.675
X4.3012Y-3.2244
X4.3012Y-3.5244
X4.4Y-3.075
X4.4Y-3.675
X4.5Y-3.075
X4.5Y-3.675
X4.6Y-3.075
X4.6Y-3.675
X4.7Y-3.075
X4.7Y-3.675
X4.8Y-3.075
X4.8Y-3.675
X4.9Y-3.075
X4.9Y-3.675
X5.0Y-3.075
X5.0Y-3.675
X5.1Y-3.075
X5.1Y-3.675
X5.2Y-3.075
X5.2Y-3.675
X5.3Y-3.075
X5.3Y-3.675
X5.4Y-3.075
X5.4Y-3.675
X5.5Y-3.075
X5.5Y-3.675
X5.6Y-3.075
X5.6Y-3.675
T3
X2.8646Y-3.2209
X2.8646Y-3.33
X2.8646Y-3.439
X2.8646Y-3.5481
X2.9764Y-3.1664
X2.9764Y-3.2754
X2.9764Y-3.3845
X2.9764Y-3.4935
X2.9764Y-3.6026
X3.1864Y-2.9514
X3.1864Y-3.0514
X3.1864Y-3.1514
X3.1864Y-3.2514
X3.1864Y-3.3514
X3.1864Y-3.4514
X3.1864Y-3.5514
X3.1864Y-3.6514
X3.1864Y-3.7514
X3.1864Y-3.8514
X3.425Y-3.2
X3.425Y-3.3
X4.2Y-3.815
X4.2Y-3.915
X4.3Y-3.815
X4.3Y-3.915
X4.455Y-3.815
X4.455Y-3.915
X4.555Y-3.815
X4.555Y-3.915
X4.7Y-2.83
X4.7Y-2.93
X4.8Y-2.83
X4.8Y-2.93
X5.81Y-3.165
X5.81Y-3.2741
X5.81Y-3.3831
X5.81Y-3.4922
X5.81Y-3.6012
X5.9218Y-3.2195
X5.9218Y-3.3286
X5.9218Y-3.4376
X5.9218Y-3.5467
T4
X2.9205Y-2.8924
X2.9205Y-3.8766
X5.8659Y-2.891
X5.8659Y-3.8752
M30
