%TF.GenerationSoftware,KiCad,Pcbnew,8.0.5-8.0.5-0~ubuntu22.04.1*%
%TF.CreationDate,2024-10-17T10:17:30+02:00*%
%TF.ProjectId,SerialSniffer_kicad,53657269-616c-4536-9e69-666665725f6b,rev?*%
%TF.SameCoordinates,Original*%
%TF.FileFunction,Soldermask,Top*%
%TF.FilePolarity,Negative*%
%FSLAX46Y46*%
G04 Gerber Fmt 4.6, Leading zero omitted, Abs format (unit mm)*
G04 Created by KiCad (PCBNEW 8.0.5-8.0.5-0~ubuntu22.04.1) date 2024-10-17 10:17:30*
%MOMM*%
%LPD*%
G01*
G04 APERTURE LIST*
G04 Aperture macros list*
%AMRoundRect*
0 Rectangle with rounded corners*
0 $1 Rounding radius*
0 $2 $3 $4 $5 $6 $7 $8 $9 X,Y pos of 4 corners*
0 Add a 4 corners polygon primitive as box body*
4,1,4,$2,$3,$4,$5,$6,$7,$8,$9,$2,$3,0*
0 Add four circle primitives for the rounded corners*
1,1,$1+$1,$2,$3*
1,1,$1+$1,$4,$5*
1,1,$1+$1,$6,$7*
1,1,$1+$1,$8,$9*
0 Add four rect primitives between the rounded corners*
20,1,$1+$1,$2,$3,$4,$5,0*
20,1,$1+$1,$4,$5,$6,$7,0*
20,1,$1+$1,$6,$7,$8,$9,0*
20,1,$1+$1,$8,$9,$2,$3,0*%
G04 Aperture macros list end*
%ADD10R,1.600000X2.400000*%
%ADD11O,1.600000X2.400000*%
%ADD12RoundRect,0.250000X-0.625000X0.400000X-0.625000X-0.400000X0.625000X-0.400000X0.625000X0.400000X0*%
%ADD13C,4.000000*%
%ADD14R,1.600000X1.600000*%
%ADD15C,1.600000*%
%ADD16RoundRect,0.250001X0.462499X0.624999X-0.462499X0.624999X-0.462499X-0.624999X0.462499X-0.624999X0*%
%ADD17O,1.700000X1.700000*%
%ADD18R,1.700000X1.700000*%
%ADD19RoundRect,0.250000X0.400000X0.625000X-0.400000X0.625000X-0.400000X-0.625000X0.400000X-0.625000X0*%
%ADD20RoundRect,0.250000X0.625000X-0.400000X0.625000X0.400000X-0.625000X0.400000X-0.625000X-0.400000X0*%
%ADD21RoundRect,0.250000X-0.400000X-0.625000X0.400000X-0.625000X0.400000X0.625000X-0.400000X0.625000X0*%
%ADD22RoundRect,0.250001X-0.624999X0.462499X-0.624999X-0.462499X0.624999X-0.462499X0.624999X0.462499X0*%
G04 APERTURE END LIST*
D10*
%TO.C,J7*%
X93980000Y-93345000D03*
D11*
X96520000Y-93345000D03*
X99060000Y-93345000D03*
X101600000Y-93345000D03*
X104140000Y-93345000D03*
X106680000Y-93345000D03*
X109220000Y-93345000D03*
X111760000Y-93345000D03*
X114300000Y-93345000D03*
X116840000Y-93345000D03*
X119380000Y-93345000D03*
X121920000Y-93345000D03*
X124460000Y-93345000D03*
X127000000Y-93345000D03*
X129540000Y-93345000D03*
X132080000Y-93345000D03*
X134620000Y-93345000D03*
X137160000Y-93345000D03*
X139700000Y-93345000D03*
X142240000Y-93345000D03*
X142240000Y-78105000D03*
X139700000Y-78105000D03*
X137160000Y-78105000D03*
X134620000Y-78105000D03*
X132080000Y-78105000D03*
X129540000Y-78105000D03*
X127000000Y-78105000D03*
X124460000Y-78105000D03*
X121920000Y-78105000D03*
X119380000Y-78105000D03*
X116840000Y-78105000D03*
X114300000Y-78105000D03*
X111760000Y-78105000D03*
X109220000Y-78105000D03*
X106680000Y-78105000D03*
X104140000Y-78105000D03*
X101600000Y-78105000D03*
X99060000Y-78105000D03*
X96520000Y-78105000D03*
X93980000Y-78105000D03*
%TD*%
D12*
%TO.C,R3*%
X112548000Y-82397000D03*
X112548000Y-85497000D03*
%TD*%
D13*
%TO.C,J1*%
X148994000Y-98431000D03*
X148994000Y-73431000D03*
D14*
X147574000Y-80391000D03*
D15*
X147574000Y-83161000D03*
X147574000Y-85931000D03*
X147574000Y-88701000D03*
X147574000Y-91471000D03*
X150414000Y-81776000D03*
X150414000Y-84546000D03*
X150414000Y-87316000D03*
X150414000Y-90086000D03*
%TD*%
D16*
%TO.C,D1*%
X103305000Y-85725000D03*
X100330000Y-85725000D03*
%TD*%
D17*
%TO.C,J5*%
X109220000Y-99441000D03*
X106680000Y-99441000D03*
X109220000Y-96901000D03*
D18*
X106680000Y-96901000D03*
%TD*%
D19*
%TO.C,R2*%
X122226000Y-81788000D03*
X119126000Y-81788000D03*
%TD*%
D18*
%TO.C,J3*%
X80934000Y-74965000D03*
D17*
X80934000Y-77505000D03*
X80934000Y-80045000D03*
X80934000Y-82585000D03*
X80934000Y-85125000D03*
X80934000Y-87665000D03*
X80934000Y-90205000D03*
X80934000Y-92745000D03*
X80934000Y-95285000D03*
X80934000Y-97825000D03*
%TD*%
D13*
%TO.C,J2*%
X74180000Y-73466000D03*
X74180000Y-98466000D03*
D14*
X75600000Y-80426000D03*
D15*
X75600000Y-83196000D03*
X75600000Y-85966000D03*
X75600000Y-88736000D03*
X75600000Y-91506000D03*
X72760000Y-81811000D03*
X72760000Y-84581000D03*
X72760000Y-87351000D03*
X72760000Y-90121000D03*
%TD*%
D16*
%TO.C,D2*%
X109173000Y-85725000D03*
X106198000Y-85725000D03*
%TD*%
D18*
%TO.C,J6*%
X119380000Y-71882000D03*
D17*
X121920000Y-71882000D03*
X119380000Y-74422000D03*
X121920000Y-74422000D03*
%TD*%
D20*
%TO.C,R5*%
X117856000Y-88799000D03*
X117856000Y-85699000D03*
%TD*%
D21*
%TO.C,R1*%
X93293000Y-74422000D03*
X96393000Y-74422000D03*
%TD*%
%TO.C,R4*%
X93345000Y-98806000D03*
X96445000Y-98806000D03*
%TD*%
D16*
%TO.C,D4*%
X97209000Y-85725000D03*
X94234000Y-85725000D03*
%TD*%
D22*
%TO.C,D3*%
X115316000Y-85725000D03*
X115316000Y-88700000D03*
%TD*%
D18*
%TO.C,J8*%
X113157000Y-96901000D03*
D17*
X115697000Y-96901000D03*
X113157000Y-99441000D03*
X115697000Y-99441000D03*
%TD*%
D10*
%TO.C,U1*%
X109251000Y-81900000D03*
D11*
X106711000Y-81900000D03*
X104171000Y-81900000D03*
X101631000Y-81900000D03*
X99091000Y-81900000D03*
X96551000Y-81900000D03*
X94011000Y-81900000D03*
X94011000Y-89520000D03*
X96551000Y-89520000D03*
X99091000Y-89520000D03*
X101631000Y-89520000D03*
X104171000Y-89520000D03*
X106711000Y-89520000D03*
X109251000Y-89520000D03*
%TD*%
D18*
%TO.C,J4*%
X86995000Y-81280000D03*
D17*
X86995000Y-83820000D03*
%TD*%
M02*
