%TF.GenerationSoftware,KiCad,Pcbnew,8.0.5-8.0.5-0~ubuntu22.04.1*%
%TF.CreationDate,2024-10-17T08:41:24+02:00*%
%TF.ProjectId,SerialSniffer_kicad,53657269-616c-4536-9e69-666665725f6b,rev?*%
%TF.SameCoordinates,Original*%
%TF.FileFunction,Copper,L2,Bot*%
%TF.FilePolarity,Positive*%
%FSLAX46Y46*%
G04 Gerber Fmt 4.6, Leading zero omitted, Abs format (unit mm)*
G04 Created by KiCad (PCBNEW 8.0.5-8.0.5-0~ubuntu22.04.1) date 2024-10-17 08:41:24*
%MOMM*%
%LPD*%
G01*
G04 APERTURE LIST*
G04 Aperture macros list*
%AMRoundRect*
0 Rectangle with rounded corners*
0 $1 Rounding radius*
0 $2 $3 $4 $5 $6 $7 $8 $9 X,Y pos of 4 corners*
0 Add a 4 corners polygon primitive as box body*
4,1,4,$2,$3,$4,$5,$6,$7,$8,$9,$2,$3,0*
0 Add four circle primitives for the rounded corners*
1,1,$1+$1,$2,$3*
1,1,$1+$1,$4,$5*
1,1,$1+$1,$6,$7*
1,1,$1+$1,$8,$9*
0 Add four rect primitives between the rounded corners*
20,1,$1+$1,$2,$3,$4,$5,0*
20,1,$1+$1,$4,$5,$6,$7,0*
20,1,$1+$1,$6,$7,$8,$9,0*
20,1,$1+$1,$8,$9,$2,$3,0*%
%AMFreePoly0*
4,1,19,0.500000,-0.750000,0.000000,-0.750000,0.000000,-0.744911,-0.071157,-0.744911,-0.207708,-0.704816,-0.327430,-0.627875,-0.420627,-0.520320,-0.479746,-0.390866,-0.500000,-0.250000,-0.500000,0.250000,-0.479746,0.390866,-0.420627,0.520320,-0.327430,0.627875,-0.207708,0.704816,-0.071157,0.744911,0.000000,0.744911,0.000000,0.750000,0.500000,0.750000,0.500000,-0.750000,0.500000,-0.750000,
$1*%
%AMFreePoly1*
4,1,19,0.000000,0.744911,0.071157,0.744911,0.207708,0.704816,0.327430,0.627875,0.420627,0.520320,0.479746,0.390866,0.500000,0.250000,0.500000,-0.250000,0.479746,-0.390866,0.420627,-0.520320,0.327430,-0.627875,0.207708,-0.704816,0.071157,-0.744911,0.000000,-0.744911,0.000000,-0.750000,-0.500000,-0.750000,-0.500000,0.750000,0.000000,0.750000,0.000000,0.744911,0.000000,0.744911,
$1*%
G04 Aperture macros list end*
%TA.AperFunction,EtchedComponent*%
%ADD10C,0.000000*%
%TD*%
%TA.AperFunction,ComponentPad*%
%ADD11R,1.600000X2.400000*%
%TD*%
%TA.AperFunction,ComponentPad*%
%ADD12O,1.600000X2.400000*%
%TD*%
%TA.AperFunction,ComponentPad*%
%ADD13C,4.000000*%
%TD*%
%TA.AperFunction,ComponentPad*%
%ADD14R,1.600000X1.600000*%
%TD*%
%TA.AperFunction,ComponentPad*%
%ADD15C,1.600000*%
%TD*%
%TA.AperFunction,ComponentPad*%
%ADD16R,1.700000X1.700000*%
%TD*%
%TA.AperFunction,ComponentPad*%
%ADD17O,1.700000X1.700000*%
%TD*%
%TA.AperFunction,SMDPad,CuDef*%
%ADD18FreePoly0,270.000000*%
%TD*%
%TA.AperFunction,SMDPad,CuDef*%
%ADD19FreePoly1,270.000000*%
%TD*%
%TA.AperFunction,SMDPad,CuDef*%
%ADD20FreePoly0,180.000000*%
%TD*%
%TA.AperFunction,SMDPad,CuDef*%
%ADD21FreePoly1,180.000000*%
%TD*%
%TA.AperFunction,SMDPad,CuDef*%
%ADD22RoundRect,0.250000X0.650000X-0.325000X0.650000X0.325000X-0.650000X0.325000X-0.650000X-0.325000X0*%
%TD*%
%TA.AperFunction,ViaPad*%
%ADD23C,1.200000*%
%TD*%
%TA.AperFunction,Conductor*%
%ADD24C,0.400000*%
%TD*%
G04 APERTURE END LIST*
D10*
%TA.AperFunction,EtchedComponent*%
%TO.C,JP1*%
G36*
X86660000Y-98690000D02*
G01*
X86060000Y-98690000D01*
X86060000Y-98190000D01*
X86660000Y-98190000D01*
X86660000Y-98690000D01*
G37*
%TD.AperFunction*%
%TA.AperFunction,EtchedComponent*%
%TO.C,JP2*%
G36*
X90851000Y-80091000D02*
G01*
X90351000Y-80091000D01*
X90351000Y-79491000D01*
X90851000Y-79491000D01*
X90851000Y-80091000D01*
G37*
%TD.AperFunction*%
%TA.AperFunction,EtchedComponent*%
%TO.C,JP3*%
G36*
X90836000Y-85425000D02*
G01*
X90336000Y-85425000D01*
X90336000Y-84825000D01*
X90836000Y-84825000D01*
X90836000Y-85425000D01*
G37*
%TD.AperFunction*%
%TD*%
D11*
%TO.P,J7,1,Pin_1*%
%TO.N,/B12*%
X93980000Y-93345000D03*
D12*
%TO.P,J7,2,Pin_2*%
%TO.N,/B13*%
X96520000Y-93345000D03*
%TO.P,J7,3,Pin_3*%
%TO.N,/B14*%
X99060000Y-93345000D03*
%TO.P,J7,4,Pin_4*%
%TO.N,/B15*%
X101600000Y-93345000D03*
%TO.P,J7,5,Pin_5*%
%TO.N,/uA8*%
X104140000Y-93345000D03*
%TO.P,J7,6,Pin_6*%
%TO.N,/TX1*%
X106680000Y-93345000D03*
%TO.P,J7,7,Pin_7*%
%TO.N,/STMRX1*%
X109220000Y-93345000D03*
%TO.P,J7,8,Pin_8*%
%TO.N,/USB-*%
X111760000Y-93345000D03*
%TO.P,J7,9,Pin_9*%
%TO.N,/USB+*%
X114300000Y-93345000D03*
%TO.P,J7,10,Pin_10*%
%TO.N,/uA15*%
X116840000Y-93345000D03*
%TO.P,J7,11,Pin_11*%
%TO.N,/B3*%
X119380000Y-93345000D03*
%TO.P,J7,12,Pin_12*%
%TO.N,/B4*%
X121920000Y-93345000D03*
%TO.P,J7,13,Pin_13*%
%TO.N,/B5*%
X124460000Y-93345000D03*
%TO.P,J7,14,Pin_14*%
%TO.N,/SCL*%
X127000000Y-93345000D03*
%TO.P,J7,15,Pin_15*%
%TO.N,/SDA*%
X129540000Y-93345000D03*
%TO.P,J7,16,Pin_16*%
%TO.N,/B8*%
X132080000Y-93345000D03*
%TO.P,J7,17,Pin_17*%
%TO.N,/B9*%
X134620000Y-93345000D03*
%TO.P,J7,18,Pin_18*%
%TO.N,+5V*%
X137160000Y-93345000D03*
%TO.P,J7,19,Pin_19*%
%TO.N,GND*%
X139700000Y-93345000D03*
%TO.P,J7,20,Pin_20*%
%TO.N,unconnected-(J7-Pin_20-Pad20)*%
X142240000Y-93345000D03*
%TO.P,J7,21,Pin_21*%
%TO.N,/VB*%
X142240000Y-78105000D03*
%TO.P,J7,22,Pin_22*%
%TO.N,/C13*%
X139700000Y-78105000D03*
%TO.P,J7,23,Pin_23*%
%TO.N,/C14*%
X137160000Y-78105000D03*
%TO.P,J7,24,Pin_24*%
%TO.N,/C15*%
X134620000Y-78105000D03*
%TO.P,J7,25,Pin_25*%
%TO.N,/~{STMRST}*%
X132080000Y-78105000D03*
%TO.P,J7,26,Pin_26*%
%TO.N,/uA0*%
X129540000Y-78105000D03*
%TO.P,J7,27,Pin_27*%
%TO.N,/uA1*%
X127000000Y-78105000D03*
%TO.P,J7,28,Pin_28*%
%TO.N,/TX2*%
X124460000Y-78105000D03*
%TO.P,J7,29,Pin_29*%
%TO.N,/STMRX2*%
X121920000Y-78105000D03*
%TO.P,J7,30,Pin_30*%
%TO.N,/uA4*%
X119380000Y-78105000D03*
%TO.P,J7,31,Pin_31*%
%TO.N,/uA5*%
X116840000Y-78105000D03*
%TO.P,J7,32,Pin_32*%
%TO.N,/uA6*%
X114300000Y-78105000D03*
%TO.P,J7,33,Pin_33*%
%TO.N,/uA7*%
X111760000Y-78105000D03*
%TO.P,J7,34,Pin_34*%
%TO.N,/B0*%
X109220000Y-78105000D03*
%TO.P,J7,35,Pin_35*%
%TO.N,/B1*%
X106680000Y-78105000D03*
%TO.P,J7,36,Pin_36*%
%TO.N,/B2*%
X104140000Y-78105000D03*
%TO.P,J7,37,Pin_37*%
%TO.N,/B10*%
X101600000Y-78105000D03*
%TO.P,J7,38,Pin_38*%
%TO.N,unconnected-(J7-Pin_38-Pad38)*%
X99060000Y-78105000D03*
%TO.P,J7,39,Pin_39*%
%TO.N,unconnected-(J7-Pin_39-Pad39)*%
X96520000Y-78105000D03*
%TO.P,J7,40,Pin_40*%
%TO.N,unconnected-(J7-Pin_40-Pad40)*%
X93980000Y-78105000D03*
%TD*%
D13*
%TO.P,J1,0,PAD*%
%TO.N,GND*%
X148994000Y-98431000D03*
X148994000Y-73431000D03*
D14*
%TO.P,J1,1,1*%
%TO.N,/Pin1*%
X147574000Y-80391000D03*
D15*
%TO.P,J1,2,2*%
%TO.N,/Pin2*%
X147574000Y-83161000D03*
%TO.P,J1,3,3*%
%TO.N,/Pin3*%
X147574000Y-85931000D03*
%TO.P,J1,4,4*%
%TO.N,/Pin4*%
X147574000Y-88701000D03*
%TO.P,J1,5,5*%
%TO.N,/Pin5*%
X147574000Y-91471000D03*
%TO.P,J1,6,6*%
%TO.N,/Pin6*%
X150414000Y-81776000D03*
%TO.P,J1,7,7*%
%TO.N,/Pin7*%
X150414000Y-84546000D03*
%TO.P,J1,8,8*%
%TO.N,/Pin8*%
X150414000Y-87316000D03*
%TO.P,J1,9,9*%
%TO.N,/Pin9*%
X150414000Y-90086000D03*
%TD*%
D16*
%TO.P,J5,1,Pin_1*%
%TO.N,/~{RX1}*%
X106680000Y-96901000D03*
D17*
%TO.P,J5,2,Pin_2*%
%TO.N,/STMRX1*%
X109220000Y-96901000D03*
%TO.P,J5,3,Pin_3*%
%TO.N,/RX1#*%
X106680000Y-99441000D03*
%TO.P,J5,4,Pin_4*%
%TO.N,/STMRX1*%
X109220000Y-99441000D03*
%TD*%
D16*
%TO.P,J3,1,Pin_1*%
%TO.N,/Pin1*%
X80934000Y-74965000D03*
D17*
%TO.P,J3,2,Pin_2*%
%TO.N,/Pin6*%
X80934000Y-77505000D03*
%TO.P,J3,3,Pin_3*%
%TO.N,/Pin2*%
X80934000Y-80045000D03*
%TO.P,J3,4,Pin_4*%
%TO.N,/Pin7*%
X80934000Y-82585000D03*
%TO.P,J3,5,Pin_5*%
%TO.N,/Pin3*%
X80934000Y-85125000D03*
%TO.P,J3,6,Pin_6*%
%TO.N,/Pin8*%
X80934000Y-87665000D03*
%TO.P,J3,7,Pin_7*%
%TO.N,/Pin4*%
X80934000Y-90205000D03*
%TO.P,J3,8,Pin_8*%
%TO.N,/Pin9*%
X80934000Y-92745000D03*
%TO.P,J3,9,Pin_9*%
%TO.N,/Pin5*%
X80934000Y-95285000D03*
%TO.P,J3,10,Pin_10*%
%TO.N,GND*%
X80934000Y-97825000D03*
%TD*%
D13*
%TO.P,J2,0,PAD*%
%TO.N,GND*%
X74180000Y-73466000D03*
X74180000Y-98466000D03*
D14*
%TO.P,J2,1,1*%
%TO.N,/Pin1*%
X75600000Y-80426000D03*
D15*
%TO.P,J2,2,2*%
%TO.N,/Pin2*%
X75600000Y-83196000D03*
%TO.P,J2,3,3*%
%TO.N,/Pin3*%
X75600000Y-85966000D03*
%TO.P,J2,4,4*%
%TO.N,/Pin4*%
X75600000Y-88736000D03*
%TO.P,J2,5,5*%
%TO.N,/Pin5*%
X75600000Y-91506000D03*
%TO.P,J2,6,6*%
%TO.N,/Pin6*%
X72760000Y-81811000D03*
%TO.P,J2,7,7*%
%TO.N,/Pin7*%
X72760000Y-84581000D03*
%TO.P,J2,8,8*%
%TO.N,/Pin8*%
X72760000Y-87351000D03*
%TO.P,J2,9,9*%
%TO.N,/Pin9*%
X72760000Y-90121000D03*
%TD*%
D16*
%TO.P,J6,1,Pin_1*%
%TO.N,/RX2#*%
X119380000Y-71882000D03*
D17*
%TO.P,J6,2,Pin_2*%
%TO.N,/STMRX2*%
X121920000Y-71882000D03*
%TO.P,J6,3,Pin_3*%
%TO.N,/~{RX2}*%
X119380000Y-74422000D03*
%TO.P,J6,4,Pin_4*%
%TO.N,/STMRX2*%
X121920000Y-74422000D03*
%TD*%
D16*
%TO.P,J8,1,Pin_1*%
%TO.N,/RX1#*%
X113157000Y-96901000D03*
D17*
%TO.P,J8,2,Pin_2*%
%TO.N,/uA0*%
X115697000Y-96901000D03*
%TO.P,J8,3,Pin_3*%
%TO.N,/RX2#*%
X113157000Y-99441000D03*
%TO.P,J8,4,Pin_4*%
%TO.N,/uA0*%
X115697000Y-99441000D03*
%TD*%
D11*
%TO.P,U1,1*%
%TO.N,Net-(D1-K)*%
X109251000Y-81900000D03*
D12*
%TO.P,U1,2*%
%TO.N,Net-(U1-Pad2)*%
X106711000Y-81900000D03*
%TO.P,U1,3*%
X104171000Y-81900000D03*
%TO.P,U1,4*%
%TO.N,/~{RX2}*%
X101631000Y-81900000D03*
%TO.P,U1,5*%
X99091000Y-81900000D03*
%TO.P,U1,6*%
%TO.N,/RX2#*%
X96551000Y-81900000D03*
%TO.P,U1,7,GND*%
%TO.N,GND*%
X94011000Y-81900000D03*
%TO.P,U1,8*%
%TO.N,/RX1#*%
X94011000Y-89520000D03*
%TO.P,U1,9*%
%TO.N,/~{RX1}*%
X96551000Y-89520000D03*
%TO.P,U1,10*%
X99091000Y-89520000D03*
%TO.P,U1,11*%
%TO.N,Net-(U1-Pad11)*%
X101631000Y-89520000D03*
%TO.P,U1,12*%
X104171000Y-89520000D03*
%TO.P,U1,13*%
%TO.N,Net-(D3-A)*%
X106711000Y-89520000D03*
%TO.P,U1,14,VCC*%
%TO.N,+5V*%
X109251000Y-89520000D03*
%TD*%
D16*
%TO.P,J4,1,Pin_1*%
%TO.N,Net-(J4-Pin_1)*%
X86995000Y-81280000D03*
D17*
%TO.P,J4,2,Pin_2*%
%TO.N,Net-(J4-Pin_2)*%
X86995000Y-83820000D03*
%TD*%
D18*
%TO.P,JP1,1,A*%
%TO.N,/Pin5*%
X86360000Y-97790000D03*
D19*
%TO.P,JP1,2,B*%
%TO.N,GND*%
X86360000Y-99090000D03*
%TD*%
D20*
%TO.P,JP2,1,A*%
%TO.N,Net-(J4-Pin_1)*%
X91251000Y-79791000D03*
D21*
%TO.P,JP2,2,B*%
%TO.N,/Pin2*%
X89951000Y-79791000D03*
%TD*%
D20*
%TO.P,JP3,1,A*%
%TO.N,Net-(J4-Pin_2)*%
X91236000Y-85125000D03*
D21*
%TO.P,JP3,2,B*%
%TO.N,/Pin3*%
X89936000Y-85125000D03*
%TD*%
D22*
%TO.P,C1,1*%
%TO.N,+5V*%
X112522000Y-88773000D03*
%TO.P,C1,2*%
%TO.N,GND*%
X112522000Y-85823000D03*
%TD*%
D23*
%TO.N,GND*%
X139700000Y-90551000D03*
X87249000Y-75819000D03*
X86868000Y-89662000D03*
%TO.N,/uA0*%
X122226000Y-81788000D03*
%TO.N,Net-(J4-Pin_2)*%
X91241000Y-85125000D03*
%TO.N,Net-(J4-Pin_1)*%
X91256000Y-79791000D03*
%TD*%
D24*
%TO.N,/Pin9*%
X150414000Y-90086000D02*
X147261943Y-90086000D01*
%TO.N,/Pin5*%
X118237000Y-100584000D02*
X118237000Y-98425000D01*
X142875000Y-97536000D02*
X147574000Y-92837000D01*
%TO.N,/Pin9*%
X117602000Y-100238000D02*
X116840000Y-101000000D01*
%TO.N,/Pin5*%
X104394000Y-97663000D02*
X104394000Y-100162528D01*
X119126000Y-97536000D02*
X142875000Y-97536000D01*
%TO.N,/Pin9*%
X117602000Y-98211472D02*
X117602000Y-100238000D01*
%TO.N,/Pin5*%
X87249000Y-96901000D02*
X103632000Y-96901000D01*
%TO.N,/Pin9*%
X147261943Y-90086000D02*
X145054236Y-92293707D01*
%TO.N,/Pin5*%
X86360000Y-97790000D02*
X87249000Y-96901000D01*
X105831472Y-101600000D02*
X117221000Y-101600000D01*
%TO.N,/Pin9*%
X116840000Y-101000000D02*
X106080000Y-101000000D01*
%TO.N,/Pin5*%
X103632000Y-96901000D02*
X104394000Y-97663000D01*
X104394000Y-100162528D02*
X105831472Y-101600000D01*
X117221000Y-101600000D02*
X118237000Y-100584000D01*
%TO.N,/Pin9*%
X145054236Y-94508236D02*
X142661472Y-96901000D01*
%TO.N,/Pin5*%
X118237000Y-98425000D02*
X119126000Y-97536000D01*
%TO.N,/Pin9*%
X104994000Y-99914000D02*
X104994000Y-97374000D01*
%TO.N,/Pin5*%
X147574000Y-92837000D02*
X147574000Y-91471000D01*
%TO.N,/Pin9*%
X145054236Y-92293707D02*
X145054236Y-94508236D01*
X104994000Y-97374000D02*
X103921000Y-96301000D01*
X142661472Y-96901000D02*
X118912472Y-96901000D01*
X118912472Y-96901000D02*
X117602000Y-98211472D01*
X106080000Y-101000000D02*
X104994000Y-99914000D01*
X103921000Y-96301000D02*
X87538000Y-96301000D01*
X87538000Y-96301000D02*
X83982000Y-92745000D01*
X83982000Y-92745000D02*
X80934000Y-92745000D01*
%TO.N,/Pin4*%
X87884000Y-95631000D02*
X117602000Y-95631000D01*
X82458000Y-90205000D02*
X87884000Y-95631000D01*
X144272000Y-92003000D02*
X147574000Y-88701000D01*
X80934000Y-90205000D02*
X82458000Y-90205000D01*
X118272000Y-96301000D02*
X142412944Y-96301000D01*
X117602000Y-95631000D02*
X118272000Y-96301000D01*
X142412944Y-96301000D02*
X144272000Y-94441944D01*
X144272000Y-94441944D02*
X144272000Y-92003000D01*
%TO.N,/Pin1*%
X80934000Y-74965000D02*
X83382000Y-72517000D01*
X116245000Y-72517000D02*
X118130000Y-70632000D01*
X140208000Y-72390000D02*
X147574000Y-79756000D01*
X83382000Y-72517000D02*
X116245000Y-72517000D01*
X125476000Y-72390000D02*
X140208000Y-72390000D01*
X118130000Y-70632000D02*
X123718000Y-70632000D01*
X123718000Y-70632000D02*
X125476000Y-72390000D01*
X147574000Y-79756000D02*
X147574000Y-80391000D01*
%TO.N,GND*%
X83977000Y-99090000D02*
X86360000Y-99090000D01*
X132178000Y-85823000D02*
X112522000Y-85823000D01*
X97934000Y-85823000D02*
X94011000Y-81900000D01*
X80934000Y-97825000D02*
X82712000Y-97825000D01*
X139700000Y-93345000D02*
X132178000Y-85823000D01*
X82712000Y-97825000D02*
X83977000Y-99090000D01*
X112522000Y-85823000D02*
X97934000Y-85823000D01*
%TO.N,+5V*%
X112522000Y-88773000D02*
X132588000Y-88773000D01*
X112522000Y-88773000D02*
X109998000Y-88773000D01*
X132588000Y-88773000D02*
X137160000Y-93345000D01*
X109998000Y-88773000D02*
X109251000Y-89520000D01*
%TO.N,/Pin1*%
X75600000Y-80426000D02*
X75600000Y-79410000D01*
X80045000Y-74965000D02*
X80934000Y-74965000D01*
X75600000Y-79410000D02*
X80045000Y-74965000D01*
%TO.N,/Pin2*%
X75630000Y-83166000D02*
X77559000Y-83166000D01*
X77559000Y-83166000D02*
X80680000Y-80045000D01*
X140900000Y-78862056D02*
X140900000Y-77207944D01*
X147485000Y-83072000D02*
X145109944Y-83072000D01*
X89951000Y-79791000D02*
X81188000Y-79791000D01*
X89951000Y-76927000D02*
X91186000Y-75692000D01*
X89951000Y-79791000D02*
X89951000Y-76927000D01*
X81188000Y-79791000D02*
X80934000Y-80045000D01*
X139384056Y-75692000D02*
X91186000Y-75692000D01*
X140900000Y-77207944D02*
X139384056Y-75692000D01*
X145109944Y-83072000D02*
X140900000Y-78862056D01*
%TO.N,/Pin5*%
X83855000Y-95285000D02*
X86360000Y-97790000D01*
X79791000Y-95285000D02*
X80934000Y-95285000D01*
X76012000Y-91506000D02*
X79791000Y-95285000D01*
X80934000Y-95285000D02*
X83855000Y-95285000D01*
%TO.N,/Pin6*%
X146203000Y-81687000D02*
X150325000Y-81687000D01*
X85900000Y-73152000D02*
X139446000Y-73152000D01*
X76912000Y-81781000D02*
X80934000Y-77759000D01*
X143764000Y-79248000D02*
X146203000Y-81687000D01*
X139446000Y-73152000D02*
X143764000Y-77470000D01*
X81547000Y-77505000D02*
X85900000Y-73152000D01*
X143764000Y-77470000D02*
X143764000Y-79248000D01*
X72790000Y-81781000D02*
X76912000Y-81781000D01*
%TO.N,/Pin8*%
X117850528Y-95031000D02*
X118364528Y-95545000D01*
X72790000Y-87321000D02*
X81291000Y-87321000D01*
X80934000Y-87665000D02*
X88300000Y-95031000D01*
X118364528Y-95545000D02*
X142320416Y-95545000D01*
X147261943Y-87316000D02*
X150414000Y-87316000D01*
X143637000Y-94228416D02*
X143637000Y-90940943D01*
X143637000Y-90940943D02*
X147261943Y-87316000D01*
X142320416Y-95545000D02*
X143637000Y-94228416D01*
X88300000Y-95031000D02*
X117850528Y-95031000D01*
%TO.N,/Pin9*%
X77518000Y-90091000D02*
X80172000Y-92745000D01*
X80172000Y-92745000D02*
X80934000Y-92745000D01*
X72790000Y-90091000D02*
X77518000Y-90091000D01*
%TO.N,/Pin4*%
X75630000Y-88706000D02*
X78546000Y-88706000D01*
X78546000Y-88706000D02*
X80045000Y-90205000D01*
X80045000Y-90205000D02*
X80934000Y-90205000D01*
%TO.N,/Pin7*%
X72790000Y-84551000D02*
X78968000Y-84551000D01*
X92456000Y-77470000D02*
X93599000Y-76327000D01*
X80949000Y-82570000D02*
X90658000Y-82570000D01*
X80934000Y-82585000D02*
X80949000Y-82570000D01*
X90658000Y-82570000D02*
X92456000Y-80772000D01*
X138360000Y-77207944D02*
X138360000Y-79002056D01*
X143814944Y-84457000D02*
X150325000Y-84457000D01*
X137479056Y-76327000D02*
X138360000Y-77207944D01*
X78968000Y-84551000D02*
X80934000Y-82585000D01*
X92456000Y-80772000D02*
X92456000Y-77470000D01*
X93599000Y-76327000D02*
X137479056Y-76327000D01*
X138360000Y-79002056D02*
X143814944Y-84457000D01*
%TO.N,/Pin3*%
X89936000Y-85125000D02*
X80934000Y-85125000D01*
X133420000Y-92587944D02*
X133420000Y-94242056D01*
X89936000Y-89733000D02*
X91948000Y-91745000D01*
X140259000Y-94945000D02*
X140900000Y-94304000D01*
X140900000Y-94304000D02*
X140900000Y-92526000D01*
X132577056Y-91745000D02*
X133420000Y-92587944D01*
X79791000Y-85125000D02*
X80934000Y-85125000D01*
X75630000Y-85936000D02*
X78980000Y-85936000D01*
X78980000Y-85936000D02*
X79791000Y-85125000D01*
X89936000Y-85125000D02*
X89936000Y-89733000D01*
X134122944Y-94945000D02*
X140259000Y-94945000D01*
X140900000Y-92526000D02*
X147495000Y-85931000D01*
X133420000Y-94242056D02*
X134122944Y-94945000D01*
X91948000Y-91745000D02*
X132577056Y-91745000D01*
%TO.N,/uA0*%
X129540000Y-78105000D02*
X125857000Y-81788000D01*
X125857000Y-81788000D02*
X122226000Y-81788000D01*
%TO.N,/RX1#*%
X107970000Y-98151000D02*
X106680000Y-99441000D01*
X111907000Y-98151000D02*
X107970000Y-98151000D01*
X113157000Y-96901000D02*
X111907000Y-98151000D01*
%TO.N,Net-(J4-Pin_1)*%
X90805000Y-81280000D02*
X91251000Y-80834000D01*
X86995000Y-81280000D02*
X90805000Y-81280000D01*
X91251000Y-80834000D02*
X91251000Y-79791000D01*
%TO.N,Net-(J4-Pin_2)*%
X90686000Y-83820000D02*
X91236000Y-84370000D01*
X91236000Y-84370000D02*
X91236000Y-85089994D01*
X91236000Y-85125000D02*
X91236000Y-85089994D01*
X86995000Y-83820000D02*
X90686000Y-83820000D01*
%TD*%
%TA.AperFunction,Conductor*%
%TO.N,GND*%
G36*
X118066406Y-70019685D02*
G01*
X118112161Y-70072489D01*
X118122105Y-70141647D01*
X118093080Y-70205203D01*
X118034302Y-70242977D01*
X118031491Y-70243766D01*
X117997933Y-70252758D01*
X117975412Y-70258793D01*
X117884084Y-70311522D01*
X116115426Y-72080181D01*
X116054103Y-72113666D01*
X116027745Y-72116500D01*
X83329273Y-72116500D01*
X83227410Y-72143793D01*
X83136087Y-72196520D01*
X83136084Y-72196522D01*
X81454426Y-73878181D01*
X81393103Y-73911666D01*
X81366745Y-73914500D01*
X80064247Y-73914500D01*
X80005770Y-73926131D01*
X80005769Y-73926132D01*
X79939447Y-73970447D01*
X79895132Y-74036769D01*
X79895131Y-74036770D01*
X79883500Y-74095247D01*
X79883500Y-74524192D01*
X79863815Y-74591231D01*
X79821502Y-74631578D01*
X79799084Y-74644521D01*
X75279522Y-79164084D01*
X75279518Y-79164090D01*
X75226792Y-79255412D01*
X75226793Y-79255413D01*
X75205845Y-79333593D01*
X75169480Y-79393254D01*
X75106633Y-79423783D01*
X75086070Y-79425500D01*
X74780247Y-79425500D01*
X74721770Y-79437131D01*
X74721769Y-79437132D01*
X74655447Y-79481447D01*
X74611132Y-79547769D01*
X74611131Y-79547770D01*
X74599500Y-79606247D01*
X74599500Y-81251840D01*
X74597941Y-81251840D01*
X74586344Y-81312991D01*
X74538279Y-81363702D01*
X74475959Y-81380500D01*
X73738670Y-81380500D01*
X73671631Y-81360815D01*
X73629312Y-81314953D01*
X73628263Y-81312991D01*
X73595910Y-81252462D01*
X73595909Y-81252460D01*
X73470883Y-81100116D01*
X73318539Y-80975090D01*
X73318532Y-80975086D01*
X73144733Y-80882188D01*
X73144727Y-80882186D01*
X72956132Y-80824976D01*
X72956129Y-80824975D01*
X72760000Y-80805659D01*
X72563870Y-80824975D01*
X72375266Y-80882188D01*
X72201467Y-80975086D01*
X72201460Y-80975090D01*
X72049116Y-81100116D01*
X71924090Y-81252460D01*
X71924086Y-81252467D01*
X71831188Y-81426266D01*
X71773975Y-81614870D01*
X71754659Y-81811000D01*
X71773975Y-82007129D01*
X71785615Y-82045500D01*
X71828993Y-82188499D01*
X71831188Y-82195733D01*
X71924086Y-82369532D01*
X71924090Y-82369539D01*
X72049116Y-82521883D01*
X72201460Y-82646909D01*
X72201467Y-82646913D01*
X72375266Y-82739811D01*
X72375269Y-82739811D01*
X72375273Y-82739814D01*
X72563868Y-82797024D01*
X72760000Y-82816341D01*
X72956132Y-82797024D01*
X73144727Y-82739814D01*
X73318538Y-82646910D01*
X73470883Y-82521883D01*
X73595910Y-82369538D01*
X73595910Y-82369536D01*
X73595914Y-82369532D01*
X73661384Y-82247047D01*
X73710346Y-82197202D01*
X73770742Y-82181500D01*
X74912518Y-82181500D01*
X74979557Y-82201185D01*
X75025312Y-82253989D01*
X75035256Y-82323147D01*
X75006231Y-82386703D01*
X74991183Y-82401353D01*
X74889116Y-82485116D01*
X74764090Y-82637460D01*
X74764086Y-82637467D01*
X74671188Y-82811266D01*
X74613975Y-82999870D01*
X74594659Y-83196000D01*
X74613975Y-83392129D01*
X74616307Y-83399815D01*
X74671168Y-83580669D01*
X74671188Y-83580733D01*
X74764086Y-83754532D01*
X74764090Y-83754539D01*
X74889114Y-83906880D01*
X74889115Y-83906881D01*
X74889117Y-83906883D01*
X74918074Y-83930647D01*
X74957407Y-83988392D01*
X74959278Y-84058237D01*
X74923091Y-84118005D01*
X74860335Y-84148721D01*
X74839408Y-84150500D01*
X73738670Y-84150500D01*
X73671631Y-84130815D01*
X73629312Y-84084953D01*
X73625601Y-84078011D01*
X73595910Y-84022462D01*
X73595909Y-84022460D01*
X73470883Y-83870116D01*
X73318539Y-83745090D01*
X73318532Y-83745086D01*
X73144733Y-83652188D01*
X73144727Y-83652186D01*
X72956132Y-83594976D01*
X72956129Y-83594975D01*
X72760000Y-83575659D01*
X72563870Y-83594975D01*
X72375266Y-83652188D01*
X72201467Y-83745086D01*
X72201460Y-83745090D01*
X72049116Y-83870116D01*
X71924090Y-84022460D01*
X71924086Y-84022467D01*
X71831188Y-84196266D01*
X71773975Y-84384870D01*
X71754659Y-84581000D01*
X71773975Y-84777129D01*
X71782284Y-84804520D01*
X71825124Y-84945745D01*
X71831188Y-84965733D01*
X71924086Y-85139532D01*
X71924090Y-85139539D01*
X72049116Y-85291883D01*
X72201460Y-85416909D01*
X72201467Y-85416913D01*
X72375266Y-85509811D01*
X72375269Y-85509811D01*
X72375273Y-85509814D01*
X72563868Y-85567024D01*
X72760000Y-85586341D01*
X72956132Y-85567024D01*
X73144727Y-85509814D01*
X73318538Y-85416910D01*
X73470883Y-85291883D01*
X73595910Y-85139538D01*
X73595910Y-85139536D01*
X73595914Y-85139532D01*
X73661384Y-85017047D01*
X73710346Y-84967202D01*
X73770742Y-84951500D01*
X74912518Y-84951500D01*
X74979557Y-84971185D01*
X75025312Y-85023989D01*
X75035256Y-85093147D01*
X75006231Y-85156703D01*
X74991183Y-85171353D01*
X74889116Y-85255116D01*
X74764090Y-85407460D01*
X74764086Y-85407467D01*
X74671188Y-85581266D01*
X74613975Y-85769870D01*
X74594659Y-85966000D01*
X74613975Y-86162129D01*
X74613976Y-86162132D01*
X74659031Y-86310659D01*
X74671188Y-86350733D01*
X74764086Y-86524532D01*
X74764090Y-86524539D01*
X74889114Y-86676880D01*
X74889115Y-86676881D01*
X74889117Y-86676883D01*
X74918074Y-86700647D01*
X74957407Y-86758392D01*
X74959278Y-86828237D01*
X74923091Y-86888005D01*
X74860335Y-86918721D01*
X74839408Y-86920500D01*
X73738670Y-86920500D01*
X73671631Y-86900815D01*
X73629312Y-86854953D01*
X73626639Y-86849953D01*
X73595910Y-86792462D01*
X73595909Y-86792460D01*
X73470883Y-86640116D01*
X73318539Y-86515090D01*
X73318532Y-86515086D01*
X73144733Y-86422188D01*
X73144727Y-86422186D01*
X72956132Y-86364976D01*
X72956129Y-86364975D01*
X72760000Y-86345659D01*
X72563870Y-86364975D01*
X72375266Y-86422188D01*
X72201467Y-86515086D01*
X72201460Y-86515090D01*
X72049116Y-86640116D01*
X71924090Y-86792460D01*
X71924086Y-86792467D01*
X71831188Y-86966266D01*
X71773975Y-87154870D01*
X71754659Y-87351000D01*
X71773975Y-87547129D01*
X71831188Y-87735733D01*
X71924086Y-87909532D01*
X71924090Y-87909539D01*
X72049116Y-88061883D01*
X72201460Y-88186909D01*
X72201467Y-88186913D01*
X72375266Y-88279811D01*
X72375269Y-88279811D01*
X72375273Y-88279814D01*
X72563868Y-88337024D01*
X72760000Y-88356341D01*
X72956132Y-88337024D01*
X73144727Y-88279814D01*
X73318538Y-88186910D01*
X73470883Y-88061883D01*
X73595910Y-87909538D01*
X73595910Y-87909536D01*
X73595914Y-87909532D01*
X73661384Y-87787047D01*
X73710346Y-87737202D01*
X73770742Y-87721500D01*
X74912518Y-87721500D01*
X74979557Y-87741185D01*
X75025312Y-87793989D01*
X75035256Y-87863147D01*
X75006231Y-87926703D01*
X74991183Y-87941353D01*
X74889116Y-88025116D01*
X74764090Y-88177460D01*
X74764086Y-88177467D01*
X74671188Y-88351266D01*
X74613975Y-88539870D01*
X74594659Y-88736000D01*
X74613975Y-88932129D01*
X74613976Y-88932132D01*
X74659031Y-89080659D01*
X74671188Y-89120733D01*
X74764086Y-89294532D01*
X74764090Y-89294539D01*
X74889114Y-89446880D01*
X74889115Y-89446881D01*
X74889117Y-89446883D01*
X74918074Y-89470647D01*
X74957407Y-89528392D01*
X74959278Y-89598237D01*
X74923091Y-89658005D01*
X74860335Y-89688721D01*
X74839408Y-89690500D01*
X73738670Y-89690500D01*
X73671631Y-89670815D01*
X73629312Y-89624953D01*
X73626639Y-89619953D01*
X73600596Y-89571228D01*
X73595909Y-89562460D01*
X73470883Y-89410116D01*
X73318539Y-89285090D01*
X73318532Y-89285086D01*
X73144733Y-89192188D01*
X73144727Y-89192186D01*
X72956132Y-89134976D01*
X72956129Y-89134975D01*
X72760000Y-89115659D01*
X72563870Y-89134975D01*
X72375266Y-89192188D01*
X72201467Y-89285086D01*
X72201460Y-89285090D01*
X72049116Y-89410116D01*
X71924090Y-89562460D01*
X71924086Y-89562467D01*
X71831188Y-89736266D01*
X71773975Y-89924870D01*
X71754659Y-90121000D01*
X71773975Y-90317129D01*
X71831188Y-90505733D01*
X71924086Y-90679532D01*
X71924090Y-90679539D01*
X72049116Y-90831883D01*
X72201460Y-90956909D01*
X72201467Y-90956913D01*
X72375266Y-91049811D01*
X72375269Y-91049811D01*
X72375273Y-91049814D01*
X72563868Y-91107024D01*
X72760000Y-91126341D01*
X72956132Y-91107024D01*
X73144727Y-91049814D01*
X73151100Y-91046408D01*
X73231632Y-91003362D01*
X73318538Y-90956910D01*
X73470883Y-90831883D01*
X73595910Y-90679538D01*
X73595910Y-90679536D01*
X73595914Y-90679532D01*
X73661384Y-90557047D01*
X73710346Y-90507202D01*
X73770742Y-90491500D01*
X74912518Y-90491500D01*
X74979557Y-90511185D01*
X75025312Y-90563989D01*
X75035256Y-90633147D01*
X75006231Y-90696703D01*
X74991183Y-90711353D01*
X74889116Y-90795116D01*
X74764090Y-90947460D01*
X74764086Y-90947467D01*
X74671188Y-91121266D01*
X74613975Y-91309870D01*
X74594659Y-91506000D01*
X74613975Y-91702129D01*
X74671188Y-91890733D01*
X74764086Y-92064532D01*
X74764090Y-92064539D01*
X74889116Y-92216883D01*
X75041460Y-92341909D01*
X75041467Y-92341913D01*
X75215266Y-92434811D01*
X75215269Y-92434811D01*
X75215273Y-92434814D01*
X75403868Y-92492024D01*
X75600000Y-92511341D01*
X75796132Y-92492024D01*
X75984727Y-92434814D01*
X76157578Y-92342422D01*
X76225976Y-92328182D01*
X76291220Y-92353181D01*
X76303708Y-92364101D01*
X79545087Y-95605480D01*
X79636412Y-95658207D01*
X79738273Y-95685500D01*
X79843727Y-95685500D01*
X79882599Y-95685500D01*
X79949638Y-95705185D01*
X79991957Y-95751046D01*
X80056315Y-95871450D01*
X80056317Y-95871452D01*
X80187589Y-96031410D01*
X80251256Y-96083659D01*
X80347550Y-96162685D01*
X80530046Y-96260232D01*
X80596551Y-96280405D01*
X80654989Y-96318702D01*
X80683446Y-96382514D01*
X80672887Y-96451581D01*
X80626663Y-96503975D01*
X80592650Y-96518841D01*
X80470514Y-96551567D01*
X80470507Y-96551570D01*
X80256422Y-96651399D01*
X80256420Y-96651400D01*
X80062926Y-96786886D01*
X80062920Y-96786891D01*
X79895891Y-96953920D01*
X79895886Y-96953926D01*
X79760400Y-97147420D01*
X79760399Y-97147422D01*
X79660570Y-97361507D01*
X79660567Y-97361513D01*
X79603364Y-97574999D01*
X79603364Y-97575000D01*
X80500988Y-97575000D01*
X80468075Y-97632007D01*
X80434000Y-97759174D01*
X80434000Y-97890826D01*
X80468075Y-98017993D01*
X80500988Y-98075000D01*
X79603364Y-98075000D01*
X79660567Y-98288486D01*
X79660570Y-98288492D01*
X79760399Y-98502578D01*
X79895894Y-98696082D01*
X80062917Y-98863105D01*
X80256421Y-98998600D01*
X80470507Y-99098429D01*
X80470516Y-99098433D01*
X80684000Y-99155634D01*
X80684000Y-98258012D01*
X80741007Y-98290925D01*
X80868174Y-98325000D01*
X80999826Y-98325000D01*
X81126993Y-98290925D01*
X81184000Y-98258012D01*
X81184000Y-99155633D01*
X81397483Y-99098433D01*
X81397492Y-99098429D01*
X81611578Y-98998600D01*
X81805082Y-98863105D01*
X81972105Y-98696082D01*
X82107600Y-98502578D01*
X82207429Y-98288492D01*
X82207432Y-98288486D01*
X82264636Y-98075000D01*
X81367012Y-98075000D01*
X81399925Y-98017993D01*
X81434000Y-97890826D01*
X81434000Y-97759174D01*
X81399925Y-97632007D01*
X81367012Y-97575000D01*
X82264636Y-97575000D01*
X82264635Y-97574999D01*
X82207432Y-97361513D01*
X82207429Y-97361507D01*
X82107600Y-97147422D01*
X82107599Y-97147420D01*
X81972113Y-96953926D01*
X81972108Y-96953920D01*
X81805082Y-96786894D01*
X81611578Y-96651399D01*
X81397492Y-96551570D01*
X81397486Y-96551567D01*
X81275349Y-96518841D01*
X81215689Y-96482476D01*
X81185160Y-96419629D01*
X81193455Y-96350253D01*
X81237940Y-96296375D01*
X81271444Y-96280407D01*
X81337954Y-96260232D01*
X81520450Y-96162685D01*
X81680410Y-96031410D01*
X81811685Y-95871450D01*
X81876043Y-95751046D01*
X81925006Y-95701202D01*
X81985401Y-95685500D01*
X83637745Y-95685500D01*
X83704784Y-95705185D01*
X83725426Y-95721819D01*
X85417771Y-97414164D01*
X85451256Y-97475487D01*
X85449067Y-97536779D01*
X85412826Y-97660206D01*
X85412822Y-97660222D01*
X85404500Y-97718109D01*
X85404500Y-98290004D01*
X85409651Y-98335728D01*
X85449333Y-98418126D01*
X85449334Y-98418127D01*
X85520837Y-98475149D01*
X85587428Y-98490348D01*
X85609995Y-98495499D01*
X85610000Y-98495500D01*
X86050672Y-98495500D01*
X86068317Y-98496761D01*
X86080754Y-98498550D01*
X86080755Y-98498550D01*
X86139242Y-98498550D01*
X86139245Y-98498550D01*
X86151681Y-98496761D01*
X86169327Y-98495500D01*
X86550673Y-98495500D01*
X86568318Y-98496761D01*
X86580755Y-98498550D01*
X86580758Y-98498550D01*
X86639245Y-98498550D01*
X86639246Y-98498550D01*
X86651682Y-98496761D01*
X86669328Y-98495500D01*
X87110003Y-98495500D01*
X87110003Y-98495499D01*
X87155728Y-98490348D01*
X87238127Y-98450666D01*
X87295149Y-98379163D01*
X87315500Y-98290000D01*
X87315500Y-97718111D01*
X87307176Y-97660215D01*
X87270932Y-97536778D01*
X87270932Y-97466910D01*
X87302226Y-97414166D01*
X87378575Y-97337817D01*
X87439898Y-97304334D01*
X87466255Y-97301500D01*
X103414745Y-97301500D01*
X103481784Y-97321185D01*
X103502426Y-97337819D01*
X103957181Y-97792573D01*
X103990666Y-97853896D01*
X103993500Y-97880254D01*
X103993500Y-100215254D01*
X104020793Y-100317117D01*
X104047156Y-100362778D01*
X104073520Y-100408441D01*
X104073522Y-100408443D01*
X105453398Y-101788319D01*
X105486883Y-101849642D01*
X105481899Y-101919334D01*
X105440027Y-101975267D01*
X105374563Y-101999684D01*
X105365717Y-102000000D01*
X65267000Y-102000000D01*
X65199961Y-101980315D01*
X65154206Y-101927511D01*
X65143000Y-101876000D01*
X65143000Y-98465994D01*
X71675057Y-98465994D01*
X71675057Y-98466005D01*
X71694807Y-98779942D01*
X71694808Y-98779949D01*
X71753755Y-99088958D01*
X71850963Y-99388132D01*
X71850965Y-99388137D01*
X71984900Y-99672761D01*
X71984903Y-99672767D01*
X72153457Y-99938367D01*
X72153460Y-99938371D01*
X72244286Y-100048160D01*
X72885748Y-99406698D01*
X72959588Y-99508330D01*
X73137670Y-99686412D01*
X73239300Y-99760250D01*
X72594971Y-100404579D01*
X72594972Y-100404581D01*
X72837772Y-100580985D01*
X72837790Y-100580996D01*
X73113447Y-100732540D01*
X73113455Y-100732544D01*
X73405926Y-100848340D01*
X73710620Y-100926573D01*
X73710629Y-100926575D01*
X74022701Y-100965999D01*
X74022715Y-100966000D01*
X74337285Y-100966000D01*
X74337298Y-100965999D01*
X74649370Y-100926575D01*
X74649379Y-100926573D01*
X74954073Y-100848340D01*
X75246544Y-100732544D01*
X75246552Y-100732540D01*
X75522209Y-100580996D01*
X75522219Y-100580990D01*
X75765026Y-100404579D01*
X75765027Y-100404579D01*
X75120698Y-99760251D01*
X75222330Y-99686412D01*
X75400412Y-99508330D01*
X75474251Y-99406699D01*
X76115712Y-100048160D01*
X76206544Y-99938364D01*
X76375096Y-99672767D01*
X76375099Y-99672761D01*
X76509034Y-99388137D01*
X76509036Y-99388132D01*
X76606244Y-99088958D01*
X76665191Y-98779949D01*
X76665192Y-98779942D01*
X76684943Y-98466005D01*
X76684943Y-98465994D01*
X76665192Y-98152057D01*
X76665191Y-98152050D01*
X76606244Y-97843041D01*
X76509036Y-97543867D01*
X76509034Y-97543862D01*
X76375099Y-97259238D01*
X76375096Y-97259232D01*
X76206542Y-96993632D01*
X76206539Y-96993628D01*
X76115712Y-96883838D01*
X75474250Y-97525300D01*
X75400412Y-97423670D01*
X75222330Y-97245588D01*
X75120698Y-97171748D01*
X75765027Y-96527419D01*
X75765026Y-96527417D01*
X75522227Y-96351014D01*
X75522209Y-96351003D01*
X75246552Y-96199459D01*
X75246544Y-96199455D01*
X74954073Y-96083659D01*
X74649379Y-96005426D01*
X74649370Y-96005424D01*
X74337298Y-95966000D01*
X74022701Y-95966000D01*
X73710629Y-96005424D01*
X73710620Y-96005426D01*
X73405926Y-96083659D01*
X73113455Y-96199455D01*
X73113447Y-96199459D01*
X72837787Y-96351004D01*
X72837782Y-96351007D01*
X72594972Y-96527418D01*
X72594971Y-96527419D01*
X73239301Y-97171748D01*
X73137670Y-97245588D01*
X72959588Y-97423670D01*
X72885748Y-97525300D01*
X72244286Y-96883838D01*
X72244285Y-96883838D01*
X72153459Y-96993629D01*
X72153457Y-96993632D01*
X71984903Y-97259232D01*
X71984900Y-97259238D01*
X71850965Y-97543862D01*
X71850963Y-97543867D01*
X71753755Y-97843041D01*
X71694808Y-98152050D01*
X71694807Y-98152057D01*
X71675057Y-98465994D01*
X65143000Y-98465994D01*
X65143000Y-73465994D01*
X71675057Y-73465994D01*
X71675057Y-73466005D01*
X71694807Y-73779942D01*
X71694808Y-73779949D01*
X71753755Y-74088958D01*
X71850963Y-74388132D01*
X71850965Y-74388137D01*
X71984900Y-74672761D01*
X71984903Y-74672767D01*
X72153457Y-74938367D01*
X72153460Y-74938371D01*
X72244286Y-75048160D01*
X72885748Y-74406698D01*
X72959588Y-74508330D01*
X73137670Y-74686412D01*
X73239300Y-74760250D01*
X72594971Y-75404579D01*
X72594972Y-75404581D01*
X72837772Y-75580985D01*
X72837790Y-75580996D01*
X73113447Y-75732540D01*
X73113455Y-75732544D01*
X73405926Y-75848340D01*
X73710620Y-75926573D01*
X73710629Y-75926575D01*
X74022701Y-75965999D01*
X74022715Y-75966000D01*
X74337285Y-75966000D01*
X74337298Y-75965999D01*
X74649370Y-75926575D01*
X74649379Y-75926573D01*
X74954073Y-75848340D01*
X75246544Y-75732544D01*
X75246552Y-75732540D01*
X75522209Y-75580996D01*
X75522219Y-75580990D01*
X75765026Y-75404579D01*
X75765027Y-75404579D01*
X75120698Y-74760251D01*
X75222330Y-74686412D01*
X75400412Y-74508330D01*
X75474251Y-74406699D01*
X76115712Y-75048160D01*
X76206544Y-74938364D01*
X76375096Y-74672767D01*
X76375099Y-74672761D01*
X76509034Y-74388137D01*
X76509036Y-74388132D01*
X76606244Y-74088958D01*
X76665191Y-73779949D01*
X76665192Y-73779942D01*
X76684943Y-73466005D01*
X76684943Y-73465994D01*
X76665192Y-73152057D01*
X76665191Y-73152050D01*
X76606244Y-72843041D01*
X76509036Y-72543867D01*
X76509034Y-72543862D01*
X76375099Y-72259238D01*
X76375096Y-72259232D01*
X76206542Y-71993632D01*
X76206539Y-71993628D01*
X76115712Y-71883838D01*
X75474250Y-72525300D01*
X75400412Y-72423670D01*
X75222330Y-72245588D01*
X75120698Y-72171748D01*
X75765027Y-71527419D01*
X75765026Y-71527417D01*
X75522227Y-71351014D01*
X75522209Y-71351003D01*
X75246552Y-71199459D01*
X75246544Y-71199455D01*
X74954073Y-71083659D01*
X74649379Y-71005426D01*
X74649370Y-71005424D01*
X74337298Y-70966000D01*
X74022701Y-70966000D01*
X73710629Y-71005424D01*
X73710620Y-71005426D01*
X73405926Y-71083659D01*
X73113455Y-71199455D01*
X73113447Y-71199459D01*
X72837787Y-71351004D01*
X72837782Y-71351007D01*
X72594972Y-71527418D01*
X72594971Y-71527419D01*
X73239301Y-72171748D01*
X73137670Y-72245588D01*
X72959588Y-72423670D01*
X72885748Y-72525300D01*
X72244286Y-71883838D01*
X72244285Y-71883838D01*
X72153459Y-71993629D01*
X72153457Y-71993632D01*
X71984903Y-72259232D01*
X71984900Y-72259238D01*
X71850965Y-72543862D01*
X71850963Y-72543867D01*
X71753755Y-72843041D01*
X71694808Y-73152050D01*
X71694807Y-73152057D01*
X71675057Y-73465994D01*
X65143000Y-73465994D01*
X65143000Y-70124000D01*
X65162685Y-70056961D01*
X65215489Y-70011206D01*
X65267000Y-70000000D01*
X117999367Y-70000000D01*
X118066406Y-70019685D01*
G37*
%TD.AperFunction*%
%TA.AperFunction,Conductor*%
G36*
X157944039Y-70019685D02*
G01*
X157989794Y-70072489D01*
X158001000Y-70124000D01*
X158001000Y-101876000D01*
X157981315Y-101943039D01*
X157928511Y-101988794D01*
X157877000Y-102000000D01*
X117686755Y-102000000D01*
X117619716Y-101980315D01*
X117573961Y-101927511D01*
X117564017Y-101858353D01*
X117593042Y-101794797D01*
X117599074Y-101788319D01*
X118557480Y-100829913D01*
X118610207Y-100738588D01*
X118637500Y-100636727D01*
X118637500Y-100531273D01*
X118637500Y-98642255D01*
X118657185Y-98575216D01*
X118673819Y-98554574D01*
X118797399Y-98430994D01*
X146489057Y-98430994D01*
X146489057Y-98431005D01*
X146508807Y-98744942D01*
X146508808Y-98744949D01*
X146567755Y-99053958D01*
X146664963Y-99353132D01*
X146664965Y-99353137D01*
X146798900Y-99637761D01*
X146798903Y-99637767D01*
X146967457Y-99903367D01*
X146967460Y-99903371D01*
X147058286Y-100013160D01*
X147699748Y-99371698D01*
X147773588Y-99473330D01*
X147951670Y-99651412D01*
X148053300Y-99725250D01*
X147408971Y-100369579D01*
X147408972Y-100369581D01*
X147651772Y-100545985D01*
X147651790Y-100545996D01*
X147927447Y-100697540D01*
X147927455Y-100697544D01*
X148219926Y-100813340D01*
X148524620Y-100891573D01*
X148524629Y-100891575D01*
X148836701Y-100930999D01*
X148836715Y-100931000D01*
X149151285Y-100931000D01*
X149151298Y-100930999D01*
X149463370Y-100891575D01*
X149463379Y-100891573D01*
X149768073Y-100813340D01*
X150060544Y-100697544D01*
X150060552Y-100697540D01*
X150336209Y-100545996D01*
X150336219Y-100545990D01*
X150579026Y-100369579D01*
X150579027Y-100369579D01*
X149934698Y-99725251D01*
X150036330Y-99651412D01*
X150214412Y-99473330D01*
X150288251Y-99371699D01*
X150929712Y-100013160D01*
X151020544Y-99903364D01*
X151189096Y-99637767D01*
X151189099Y-99637761D01*
X151323034Y-99353137D01*
X151323036Y-99353132D01*
X151420244Y-99053958D01*
X151479191Y-98744949D01*
X151479192Y-98744942D01*
X151498943Y-98431005D01*
X151498943Y-98430994D01*
X151479192Y-98117057D01*
X151479191Y-98117050D01*
X151420244Y-97808041D01*
X151323036Y-97508867D01*
X151323034Y-97508862D01*
X151189099Y-97224238D01*
X151189096Y-97224232D01*
X151020542Y-96958632D01*
X151020539Y-96958628D01*
X150929712Y-96848838D01*
X150288250Y-97490300D01*
X150214412Y-97388670D01*
X150036330Y-97210588D01*
X149934698Y-97136748D01*
X150579027Y-96492419D01*
X150579026Y-96492417D01*
X150336227Y-96316014D01*
X150336209Y-96316003D01*
X150060552Y-96164459D01*
X150060544Y-96164455D01*
X149768073Y-96048659D01*
X149463379Y-95970426D01*
X149463370Y-95970424D01*
X149151298Y-95931000D01*
X148836701Y-95931000D01*
X148524629Y-95970424D01*
X148524620Y-95970426D01*
X148219926Y-96048659D01*
X147927455Y-96164455D01*
X147927447Y-96164459D01*
X147651787Y-96316004D01*
X147651782Y-96316007D01*
X147408972Y-96492418D01*
X147408971Y-96492419D01*
X148053301Y-97136748D01*
X147951670Y-97210588D01*
X147773588Y-97388670D01*
X147699748Y-97490300D01*
X147058286Y-96848838D01*
X147058285Y-96848838D01*
X146967459Y-96958629D01*
X146967457Y-96958632D01*
X146798903Y-97224232D01*
X146798900Y-97224238D01*
X146664965Y-97508862D01*
X146664963Y-97508867D01*
X146567755Y-97808041D01*
X146508808Y-98117050D01*
X146508807Y-98117057D01*
X146489057Y-98430994D01*
X118797399Y-98430994D01*
X119255574Y-97972819D01*
X119316897Y-97939334D01*
X119343255Y-97936500D01*
X142927725Y-97936500D01*
X142927727Y-97936500D01*
X143029588Y-97909207D01*
X143120913Y-97856480D01*
X147809703Y-93167687D01*
X147809708Y-93167684D01*
X147819911Y-93157480D01*
X147819913Y-93157480D01*
X147894480Y-93082913D01*
X147947207Y-92991587D01*
X147958100Y-92950934D01*
X147974501Y-92889726D01*
X147974501Y-92784273D01*
X147974501Y-92776678D01*
X147974500Y-92776660D01*
X147974500Y-92465705D01*
X147994185Y-92398666D01*
X148040045Y-92356348D01*
X148132538Y-92306910D01*
X148284883Y-92181883D01*
X148409910Y-92029538D01*
X148469544Y-91917970D01*
X148502811Y-91855733D01*
X148502811Y-91855732D01*
X148502814Y-91855727D01*
X148560024Y-91667132D01*
X148579341Y-91471000D01*
X148560024Y-91274868D01*
X148502814Y-91086273D01*
X148502811Y-91086269D01*
X148502811Y-91086266D01*
X148409913Y-90912467D01*
X148409909Y-90912460D01*
X148284883Y-90760116D01*
X148219372Y-90706353D01*
X148180038Y-90648608D01*
X148178167Y-90578763D01*
X148214354Y-90518995D01*
X148277110Y-90488279D01*
X148298037Y-90486500D01*
X149419294Y-90486500D01*
X149486333Y-90506185D01*
X149528652Y-90552047D01*
X149578086Y-90644532D01*
X149578090Y-90644539D01*
X149703116Y-90796883D01*
X149855460Y-90921909D01*
X149855467Y-90921913D01*
X150029266Y-91014811D01*
X150029269Y-91014811D01*
X150029273Y-91014814D01*
X150217868Y-91072024D01*
X150414000Y-91091341D01*
X150610132Y-91072024D01*
X150798727Y-91014814D01*
X150972538Y-90921910D01*
X151124883Y-90796883D01*
X151249910Y-90644538D01*
X151313548Y-90525480D01*
X151342811Y-90470733D01*
X151342811Y-90470732D01*
X151342814Y-90470727D01*
X151400024Y-90282132D01*
X151419341Y-90086000D01*
X151400024Y-89889868D01*
X151342814Y-89701273D01*
X151342811Y-89701269D01*
X151342811Y-89701266D01*
X151249913Y-89527467D01*
X151249909Y-89527460D01*
X151124883Y-89375116D01*
X150972539Y-89250090D01*
X150972532Y-89250086D01*
X150798733Y-89157188D01*
X150798727Y-89157186D01*
X150610132Y-89099976D01*
X150610129Y-89099975D01*
X150414000Y-89080659D01*
X150217870Y-89099975D01*
X150029266Y-89157188D01*
X149855467Y-89250086D01*
X149855460Y-89250090D01*
X149703116Y-89375116D01*
X149578090Y-89527460D01*
X149578086Y-89527467D01*
X149528652Y-89619953D01*
X149479690Y-89669797D01*
X149419294Y-89685500D01*
X148298037Y-89685500D01*
X148230998Y-89665815D01*
X148185243Y-89613011D01*
X148175299Y-89543853D01*
X148204324Y-89480297D01*
X148219372Y-89465647D01*
X148284883Y-89411883D01*
X148354285Y-89327317D01*
X148409910Y-89259538D01*
X148483318Y-89122202D01*
X148502811Y-89085733D01*
X148502811Y-89085732D01*
X148502814Y-89085727D01*
X148560024Y-88897132D01*
X148579341Y-88701000D01*
X148560024Y-88504868D01*
X148502814Y-88316273D01*
X148502811Y-88316269D01*
X148502811Y-88316266D01*
X148409913Y-88142467D01*
X148409909Y-88142460D01*
X148284883Y-87990116D01*
X148219372Y-87936353D01*
X148180038Y-87878608D01*
X148178167Y-87808763D01*
X148214354Y-87748995D01*
X148277110Y-87718279D01*
X148298037Y-87716500D01*
X149419294Y-87716500D01*
X149486333Y-87736185D01*
X149528652Y-87782047D01*
X149578086Y-87874532D01*
X149578090Y-87874539D01*
X149703116Y-88026883D01*
X149855460Y-88151909D01*
X149855467Y-88151913D01*
X150029266Y-88244811D01*
X150029269Y-88244811D01*
X150029273Y-88244814D01*
X150217868Y-88302024D01*
X150414000Y-88321341D01*
X150610132Y-88302024D01*
X150798727Y-88244814D01*
X150807822Y-88239953D01*
X150907058Y-88186910D01*
X150972538Y-88151910D01*
X151124883Y-88026883D01*
X151249910Y-87874538D01*
X151342814Y-87700727D01*
X151400024Y-87512132D01*
X151419341Y-87316000D01*
X151400024Y-87119868D01*
X151342814Y-86931273D01*
X151342811Y-86931269D01*
X151342811Y-86931266D01*
X151249913Y-86757467D01*
X151249909Y-86757460D01*
X151124883Y-86605116D01*
X150972539Y-86480090D01*
X150972532Y-86480086D01*
X150798733Y-86387188D01*
X150798727Y-86387186D01*
X150631639Y-86336500D01*
X150610129Y-86329975D01*
X150414000Y-86310659D01*
X150217870Y-86329975D01*
X150029266Y-86387188D01*
X149855467Y-86480086D01*
X149855460Y-86480090D01*
X149703116Y-86605116D01*
X149578090Y-86757460D01*
X149578086Y-86757467D01*
X149528652Y-86849953D01*
X149479690Y-86899797D01*
X149419294Y-86915500D01*
X148298037Y-86915500D01*
X148230998Y-86895815D01*
X148185243Y-86843011D01*
X148175299Y-86773853D01*
X148204324Y-86710297D01*
X148219372Y-86695647D01*
X148284883Y-86641883D01*
X148409909Y-86489539D01*
X148409913Y-86489532D01*
X148421891Y-86467124D01*
X148502814Y-86315727D01*
X148560024Y-86127132D01*
X148579341Y-85931000D01*
X148560024Y-85734868D01*
X148502814Y-85546273D01*
X148502811Y-85546269D01*
X148502811Y-85546266D01*
X148409913Y-85372467D01*
X148409909Y-85372460D01*
X148284883Y-85220116D01*
X148132539Y-85095090D01*
X148132536Y-85095088D01*
X148124623Y-85090859D01*
X148074778Y-85041897D01*
X148059317Y-84973759D01*
X148083148Y-84908079D01*
X148138705Y-84865710D01*
X148183075Y-84857500D01*
X149372000Y-84857500D01*
X149439039Y-84877185D01*
X149481264Y-84925915D01*
X149482314Y-84925355D01*
X149484785Y-84929979D01*
X149484794Y-84929989D01*
X149484807Y-84930020D01*
X149578086Y-85104532D01*
X149578090Y-85104539D01*
X149703116Y-85256883D01*
X149855460Y-85381909D01*
X149855467Y-85381913D01*
X150029266Y-85474811D01*
X150029269Y-85474811D01*
X150029273Y-85474814D01*
X150217868Y-85532024D01*
X150414000Y-85551341D01*
X150610132Y-85532024D01*
X150798727Y-85474814D01*
X150799274Y-85474522D01*
X150907058Y-85416910D01*
X150972538Y-85381910D01*
X151124883Y-85256883D01*
X151249910Y-85104538D01*
X151342814Y-84930727D01*
X151400024Y-84742132D01*
X151419341Y-84546000D01*
X151400024Y-84349868D01*
X151342814Y-84161273D01*
X151342811Y-84161269D01*
X151342811Y-84161266D01*
X151249913Y-83987467D01*
X151249909Y-83987460D01*
X151124883Y-83835116D01*
X150972539Y-83710090D01*
X150972532Y-83710086D01*
X150798733Y-83617188D01*
X150798727Y-83617186D01*
X150631639Y-83566500D01*
X150610129Y-83559975D01*
X150414000Y-83540659D01*
X150217870Y-83559975D01*
X150029266Y-83617188D01*
X149855467Y-83710086D01*
X149855460Y-83710090D01*
X149703116Y-83835116D01*
X149578092Y-83987458D01*
X149578090Y-83987462D01*
X149576222Y-83990955D01*
X149574762Y-83992441D01*
X149574709Y-83992522D01*
X149574693Y-83992511D01*
X149527261Y-84040798D01*
X149466866Y-84056500D01*
X148395548Y-84056500D01*
X148328509Y-84036815D01*
X148282754Y-83984011D01*
X148272810Y-83914853D01*
X148299695Y-83853835D01*
X148409909Y-83719539D01*
X148409913Y-83719532D01*
X148502811Y-83545733D01*
X148502811Y-83545732D01*
X148502814Y-83545727D01*
X148560024Y-83357132D01*
X148579341Y-83161000D01*
X148560024Y-82964868D01*
X148502814Y-82776273D01*
X148502811Y-82776269D01*
X148502811Y-82776266D01*
X148409913Y-82602467D01*
X148409909Y-82602460D01*
X148284883Y-82450116D01*
X148132539Y-82325090D01*
X148132536Y-82325088D01*
X148124623Y-82320859D01*
X148074778Y-82271897D01*
X148059317Y-82203759D01*
X148083148Y-82138079D01*
X148138705Y-82095710D01*
X148183075Y-82087500D01*
X149372000Y-82087500D01*
X149439039Y-82107185D01*
X149481264Y-82155915D01*
X149482314Y-82155355D01*
X149484785Y-82159979D01*
X149484794Y-82159989D01*
X149484807Y-82160020D01*
X149578086Y-82334532D01*
X149578090Y-82334539D01*
X149703116Y-82486883D01*
X149855460Y-82611909D01*
X149855467Y-82611913D01*
X150029266Y-82704811D01*
X150029269Y-82704811D01*
X150029273Y-82704814D01*
X150217868Y-82762024D01*
X150414000Y-82781341D01*
X150610132Y-82762024D01*
X150798727Y-82704814D01*
X150807822Y-82699953D01*
X150907058Y-82646910D01*
X150972538Y-82611910D01*
X151124883Y-82486883D01*
X151249910Y-82334538D01*
X151321189Y-82201185D01*
X151342811Y-82160733D01*
X151342811Y-82160732D01*
X151342814Y-82160727D01*
X151400024Y-81972132D01*
X151419341Y-81776000D01*
X151400024Y-81579868D01*
X151342814Y-81391273D01*
X151342811Y-81391269D01*
X151342811Y-81391266D01*
X151249913Y-81217467D01*
X151249909Y-81217460D01*
X151124883Y-81065116D01*
X150972539Y-80940090D01*
X150972532Y-80940086D01*
X150798733Y-80847188D01*
X150798727Y-80847186D01*
X150661832Y-80805659D01*
X150610129Y-80789975D01*
X150414000Y-80770659D01*
X150217870Y-80789975D01*
X150029266Y-80847188D01*
X149855467Y-80940086D01*
X149855460Y-80940090D01*
X149703116Y-81065116D01*
X149578092Y-81217458D01*
X149578090Y-81217462D01*
X149576222Y-81220955D01*
X149574762Y-81222441D01*
X149574709Y-81222522D01*
X149574693Y-81222511D01*
X149527261Y-81270798D01*
X149466866Y-81286500D01*
X148698500Y-81286500D01*
X148631461Y-81266815D01*
X148585706Y-81214011D01*
X148574500Y-81162500D01*
X148574500Y-79571249D01*
X148574499Y-79571247D01*
X148562868Y-79512770D01*
X148562867Y-79512769D01*
X148518552Y-79446447D01*
X148452230Y-79402132D01*
X148452229Y-79402131D01*
X148393752Y-79390500D01*
X148393748Y-79390500D01*
X147826255Y-79390500D01*
X147759216Y-79370815D01*
X147738574Y-79354181D01*
X141815387Y-73430994D01*
X146489057Y-73430994D01*
X146489057Y-73431005D01*
X146508807Y-73744942D01*
X146508808Y-73744949D01*
X146567755Y-74053958D01*
X146664963Y-74353132D01*
X146664965Y-74353137D01*
X146798900Y-74637761D01*
X146798903Y-74637767D01*
X146967457Y-74903367D01*
X146967460Y-74903371D01*
X147058286Y-75013160D01*
X147699748Y-74371698D01*
X147773588Y-74473330D01*
X147951670Y-74651412D01*
X148053300Y-74725250D01*
X147408971Y-75369579D01*
X147408972Y-75369581D01*
X147651772Y-75545985D01*
X147651790Y-75545996D01*
X147927447Y-75697540D01*
X147927455Y-75697544D01*
X148219926Y-75813340D01*
X148524620Y-75891573D01*
X148524629Y-75891575D01*
X148836701Y-75930999D01*
X148836715Y-75931000D01*
X149151285Y-75931000D01*
X149151298Y-75930999D01*
X149463370Y-75891575D01*
X149463379Y-75891573D01*
X149768073Y-75813340D01*
X150060544Y-75697544D01*
X150060552Y-75697540D01*
X150336209Y-75545996D01*
X150336219Y-75545990D01*
X150579026Y-75369579D01*
X150579027Y-75369579D01*
X149934698Y-74725251D01*
X150036330Y-74651412D01*
X150214412Y-74473330D01*
X150288251Y-74371699D01*
X150929712Y-75013160D01*
X151020544Y-74903364D01*
X151189096Y-74637767D01*
X151189099Y-74637761D01*
X151323034Y-74353137D01*
X151323036Y-74353132D01*
X151420244Y-74053958D01*
X151479191Y-73744949D01*
X151479192Y-73744942D01*
X151498943Y-73431005D01*
X151498943Y-73430994D01*
X151479192Y-73117057D01*
X151479191Y-73117050D01*
X151420244Y-72808041D01*
X151323036Y-72508867D01*
X151323034Y-72508862D01*
X151189099Y-72224238D01*
X151189096Y-72224232D01*
X151020542Y-71958632D01*
X151020539Y-71958628D01*
X150929712Y-71848838D01*
X150288250Y-72490300D01*
X150214412Y-72388670D01*
X150036330Y-72210588D01*
X149934698Y-72136748D01*
X150579027Y-71492419D01*
X150579026Y-71492417D01*
X150336227Y-71316014D01*
X150336209Y-71316003D01*
X150060552Y-71164459D01*
X150060544Y-71164455D01*
X149768073Y-71048659D01*
X149463379Y-70970426D01*
X149463370Y-70970424D01*
X149151298Y-70931000D01*
X148836701Y-70931000D01*
X148524629Y-70970424D01*
X148524620Y-70970426D01*
X148219926Y-71048659D01*
X147927455Y-71164455D01*
X147927447Y-71164459D01*
X147651787Y-71316004D01*
X147651782Y-71316007D01*
X147408972Y-71492418D01*
X147408971Y-71492419D01*
X148053301Y-72136748D01*
X147951670Y-72210588D01*
X147773588Y-72388670D01*
X147699748Y-72490300D01*
X147058286Y-71848838D01*
X147058285Y-71848838D01*
X146967459Y-71958629D01*
X146967457Y-71958632D01*
X146798903Y-72224232D01*
X146798900Y-72224238D01*
X146664965Y-72508862D01*
X146664963Y-72508867D01*
X146567755Y-72808041D01*
X146508808Y-73117050D01*
X146508807Y-73117057D01*
X146489057Y-73430994D01*
X141815387Y-73430994D01*
X140453915Y-72069522D01*
X140453913Y-72069520D01*
X140408250Y-72043156D01*
X140362589Y-72016793D01*
X140311657Y-72003146D01*
X140260727Y-71989500D01*
X140260726Y-71989500D01*
X125693255Y-71989500D01*
X125626216Y-71969815D01*
X125605574Y-71953181D01*
X123963915Y-70311522D01*
X123963913Y-70311520D01*
X123918250Y-70285156D01*
X123872589Y-70258793D01*
X123842852Y-70250825D01*
X123816537Y-70243774D01*
X123756877Y-70207410D01*
X123726348Y-70144563D01*
X123734643Y-70075188D01*
X123779128Y-70021310D01*
X123845680Y-70000035D01*
X123848631Y-70000000D01*
X157877000Y-70000000D01*
X157944039Y-70019685D01*
G37*
%TD.AperFunction*%
%TA.AperFunction,Conductor*%
G36*
X89216548Y-85545185D02*
G01*
X89262303Y-85597989D01*
X89262847Y-85599303D01*
X89324112Y-85733456D01*
X89324121Y-85733472D01*
X89355738Y-85782668D01*
X89355749Y-85782684D01*
X89449893Y-85891332D01*
X89449896Y-85891335D01*
X89492703Y-85928428D01*
X89530477Y-85987206D01*
X89535500Y-86022140D01*
X89535500Y-89680273D01*
X89535500Y-89785727D01*
X89540530Y-89804500D01*
X89562793Y-89887589D01*
X89584317Y-89924868D01*
X89615520Y-89978913D01*
X89615521Y-89978914D01*
X89615522Y-89978915D01*
X91623179Y-91986571D01*
X91623189Y-91986582D01*
X91627519Y-91990912D01*
X91627520Y-91990913D01*
X91702087Y-92065480D01*
X91793413Y-92118207D01*
X91895273Y-92145501D01*
X91895275Y-92145501D01*
X92008323Y-92145501D01*
X92008339Y-92145500D01*
X92855500Y-92145500D01*
X92922539Y-92165185D01*
X92968294Y-92217989D01*
X92979500Y-92269500D01*
X92979500Y-94506500D01*
X92959815Y-94573539D01*
X92907011Y-94619294D01*
X92855500Y-94630500D01*
X88517255Y-94630500D01*
X88450216Y-94610815D01*
X88429574Y-94594181D01*
X81960649Y-88125256D01*
X81927164Y-88063933D01*
X81929669Y-88001580D01*
X81930041Y-88000354D01*
X81969300Y-87870934D01*
X81989583Y-87665000D01*
X81969300Y-87459066D01*
X81909232Y-87261046D01*
X81811685Y-87078550D01*
X81759702Y-87015209D01*
X81680410Y-86918589D01*
X81538234Y-86801910D01*
X81520450Y-86787315D01*
X81337954Y-86689768D01*
X81139934Y-86629700D01*
X81139932Y-86629699D01*
X81139934Y-86629699D01*
X80934000Y-86609417D01*
X80728067Y-86629699D01*
X80530043Y-86689769D01*
X80347546Y-86787317D01*
X80219560Y-86892353D01*
X80155250Y-86919666D01*
X80140895Y-86920500D01*
X76360592Y-86920500D01*
X76293553Y-86900815D01*
X76247798Y-86848011D01*
X76237854Y-86778853D01*
X76266879Y-86715297D01*
X76281922Y-86700650D01*
X76310883Y-86676883D01*
X76435910Y-86524538D01*
X76435910Y-86524536D01*
X76435914Y-86524532D01*
X76501384Y-86402047D01*
X76550346Y-86352202D01*
X76610742Y-86336500D01*
X79032725Y-86336500D01*
X79032727Y-86336500D01*
X79134588Y-86309207D01*
X79225913Y-86256480D01*
X79838689Y-85643703D01*
X79900010Y-85610220D01*
X79969701Y-85615204D01*
X80025635Y-85657075D01*
X80035725Y-85672930D01*
X80056316Y-85711452D01*
X80187589Y-85871410D01*
X80260201Y-85931000D01*
X80347550Y-86002685D01*
X80530046Y-86100232D01*
X80728066Y-86160300D01*
X80728065Y-86160300D01*
X80746529Y-86162118D01*
X80934000Y-86180583D01*
X81139934Y-86160300D01*
X81337954Y-86100232D01*
X81520450Y-86002685D01*
X81680410Y-85871410D01*
X81811685Y-85711450D01*
X81876043Y-85591046D01*
X81925006Y-85541202D01*
X81985401Y-85525500D01*
X89149509Y-85525500D01*
X89216548Y-85545185D01*
G37*
%TD.AperFunction*%
%TA.AperFunction,Conductor*%
G36*
X95850255Y-76747185D02*
G01*
X95896010Y-76799989D01*
X95905954Y-76869147D01*
X95876929Y-76932703D01*
X95870897Y-76939181D01*
X95742863Y-77067214D01*
X95742860Y-77067218D01*
X95633371Y-77231079D01*
X95633364Y-77231092D01*
X95557950Y-77413160D01*
X95557947Y-77413170D01*
X95519500Y-77606456D01*
X95519500Y-77606459D01*
X95519500Y-78603541D01*
X95519500Y-78603543D01*
X95519499Y-78603543D01*
X95557947Y-78796829D01*
X95557950Y-78796839D01*
X95633364Y-78978907D01*
X95633371Y-78978920D01*
X95742860Y-79142781D01*
X95742863Y-79142785D01*
X95882214Y-79282136D01*
X95882218Y-79282139D01*
X96046079Y-79391628D01*
X96046092Y-79391635D01*
X96221709Y-79464377D01*
X96228165Y-79467051D01*
X96228169Y-79467051D01*
X96228170Y-79467052D01*
X96421456Y-79505500D01*
X96421459Y-79505500D01*
X96618543Y-79505500D01*
X96785894Y-79472211D01*
X96811835Y-79467051D01*
X96968567Y-79402131D01*
X96993907Y-79391635D01*
X96993907Y-79391634D01*
X96993914Y-79391632D01*
X97157782Y-79282139D01*
X97297139Y-79142782D01*
X97406632Y-78978914D01*
X97408383Y-78974688D01*
X97436462Y-78906897D01*
X97482051Y-78796835D01*
X97520500Y-78603541D01*
X97520500Y-77606459D01*
X97520500Y-77606456D01*
X97482052Y-77413170D01*
X97482051Y-77413169D01*
X97482051Y-77413165D01*
X97441561Y-77315412D01*
X97406635Y-77231092D01*
X97406628Y-77231079D01*
X97297139Y-77067218D01*
X97297136Y-77067214D01*
X97169103Y-76939181D01*
X97135618Y-76877858D01*
X97140602Y-76808166D01*
X97182474Y-76752233D01*
X97247938Y-76727816D01*
X97256784Y-76727500D01*
X98323216Y-76727500D01*
X98390255Y-76747185D01*
X98436010Y-76799989D01*
X98445954Y-76869147D01*
X98416929Y-76932703D01*
X98410897Y-76939181D01*
X98282863Y-77067214D01*
X98282860Y-77067218D01*
X98173371Y-77231079D01*
X98173364Y-77231092D01*
X98097950Y-77413160D01*
X98097947Y-77413170D01*
X98059500Y-77606456D01*
X98059500Y-77606459D01*
X98059500Y-78603541D01*
X98059500Y-78603543D01*
X98059499Y-78603543D01*
X98097947Y-78796829D01*
X98097950Y-78796839D01*
X98173364Y-78978907D01*
X98173371Y-78978920D01*
X98282860Y-79142781D01*
X98282863Y-79142785D01*
X98422214Y-79282136D01*
X98422218Y-79282139D01*
X98586079Y-79391628D01*
X98586092Y-79391635D01*
X98761709Y-79464377D01*
X98768165Y-79467051D01*
X98768169Y-79467051D01*
X98768170Y-79467052D01*
X98961456Y-79505500D01*
X98961459Y-79505500D01*
X99158543Y-79505500D01*
X99325894Y-79472211D01*
X99351835Y-79467051D01*
X99508567Y-79402131D01*
X99533907Y-79391635D01*
X99533907Y-79391634D01*
X99533914Y-79391632D01*
X99697782Y-79282139D01*
X99837139Y-79142782D01*
X99946632Y-78978914D01*
X99948383Y-78974688D01*
X99976462Y-78906897D01*
X100022051Y-78796835D01*
X100060500Y-78603541D01*
X100060500Y-77606459D01*
X100060500Y-77606456D01*
X100022052Y-77413170D01*
X100022051Y-77413169D01*
X100022051Y-77413165D01*
X99981561Y-77315412D01*
X99946635Y-77231092D01*
X99946628Y-77231079D01*
X99837139Y-77067218D01*
X99837136Y-77067214D01*
X99709103Y-76939181D01*
X99675618Y-76877858D01*
X99680602Y-76808166D01*
X99722474Y-76752233D01*
X99787938Y-76727816D01*
X99796784Y-76727500D01*
X100863216Y-76727500D01*
X100930255Y-76747185D01*
X100976010Y-76799989D01*
X100985954Y-76869147D01*
X100956929Y-76932703D01*
X100950897Y-76939181D01*
X100822863Y-77067214D01*
X100822860Y-77067218D01*
X100713371Y-77231079D01*
X100713364Y-77231092D01*
X100637950Y-77413160D01*
X100637947Y-77413170D01*
X100599500Y-77606456D01*
X100599500Y-77606459D01*
X100599500Y-78603541D01*
X100599500Y-78603543D01*
X100599499Y-78603543D01*
X100637947Y-78796829D01*
X100637950Y-78796839D01*
X100713364Y-78978907D01*
X100713371Y-78978920D01*
X100822860Y-79142781D01*
X100822863Y-79142785D01*
X100962214Y-79282136D01*
X100962218Y-79282139D01*
X101126079Y-79391628D01*
X101126092Y-79391635D01*
X101301709Y-79464377D01*
X101308165Y-79467051D01*
X101308169Y-79467051D01*
X101308170Y-79467052D01*
X101501456Y-79505500D01*
X101501459Y-79505500D01*
X101698543Y-79505500D01*
X101865894Y-79472211D01*
X101891835Y-79467051D01*
X102048567Y-79402131D01*
X102073907Y-79391635D01*
X102073907Y-79391634D01*
X102073914Y-79391632D01*
X102237782Y-79282139D01*
X102377139Y-79142782D01*
X102486632Y-78978914D01*
X102488383Y-78974688D01*
X102516462Y-78906897D01*
X102562051Y-78796835D01*
X102600500Y-78603541D01*
X102600500Y-77606459D01*
X102600500Y-77606456D01*
X102562052Y-77413170D01*
X102562051Y-77413169D01*
X102562051Y-77413165D01*
X102521561Y-77315412D01*
X102486635Y-77231092D01*
X102486628Y-77231079D01*
X102377139Y-77067218D01*
X102377136Y-77067214D01*
X102249103Y-76939181D01*
X102215618Y-76877858D01*
X102220602Y-76808166D01*
X102262474Y-76752233D01*
X102327938Y-76727816D01*
X102336784Y-76727500D01*
X103403216Y-76727500D01*
X103470255Y-76747185D01*
X103516010Y-76799989D01*
X103525954Y-76869147D01*
X103496929Y-76932703D01*
X103490897Y-76939181D01*
X103362863Y-77067214D01*
X103362860Y-77067218D01*
X103253371Y-77231079D01*
X103253364Y-77231092D01*
X103177950Y-77413160D01*
X103177947Y-77413170D01*
X103139500Y-77606456D01*
X103139500Y-77606459D01*
X103139500Y-78603541D01*
X103139500Y-78603543D01*
X103139499Y-78603543D01*
X103177947Y-78796829D01*
X103177950Y-78796839D01*
X103253364Y-78978907D01*
X103253371Y-78978920D01*
X103362860Y-79142781D01*
X103362863Y-79142785D01*
X103502214Y-79282136D01*
X103502218Y-79282139D01*
X103666079Y-79391628D01*
X103666092Y-79391635D01*
X103841709Y-79464377D01*
X103848165Y-79467051D01*
X103848169Y-79467051D01*
X103848170Y-79467052D01*
X104041456Y-79505500D01*
X104041459Y-79505500D01*
X104238543Y-79505500D01*
X104405894Y-79472211D01*
X104431835Y-79467051D01*
X104588567Y-79402131D01*
X104613907Y-79391635D01*
X104613907Y-79391634D01*
X104613914Y-79391632D01*
X104777782Y-79282139D01*
X104917139Y-79142782D01*
X105026632Y-78978914D01*
X105028383Y-78974688D01*
X105056462Y-78906897D01*
X105102051Y-78796835D01*
X105140500Y-78603541D01*
X105140500Y-77606459D01*
X105140500Y-77606456D01*
X105102052Y-77413170D01*
X105102051Y-77413169D01*
X105102051Y-77413165D01*
X105061561Y-77315412D01*
X105026635Y-77231092D01*
X105026628Y-77231079D01*
X104917139Y-77067218D01*
X104917136Y-77067214D01*
X104789103Y-76939181D01*
X104755618Y-76877858D01*
X104760602Y-76808166D01*
X104802474Y-76752233D01*
X104867938Y-76727816D01*
X104876784Y-76727500D01*
X105943216Y-76727500D01*
X106010255Y-76747185D01*
X106056010Y-76799989D01*
X106065954Y-76869147D01*
X106036929Y-76932703D01*
X106030897Y-76939181D01*
X105902863Y-77067214D01*
X105902860Y-77067218D01*
X105793371Y-77231079D01*
X105793364Y-77231092D01*
X105717950Y-77413160D01*
X105717947Y-77413170D01*
X105679500Y-77606456D01*
X105679500Y-77606459D01*
X105679500Y-78603541D01*
X105679500Y-78603543D01*
X105679499Y-78603543D01*
X105717947Y-78796829D01*
X105717950Y-78796839D01*
X105793364Y-78978907D01*
X105793371Y-78978920D01*
X105902860Y-79142781D01*
X105902863Y-79142785D01*
X106042214Y-79282136D01*
X106042218Y-79282139D01*
X106206079Y-79391628D01*
X106206092Y-79391635D01*
X106381709Y-79464377D01*
X106388165Y-79467051D01*
X106388169Y-79467051D01*
X106388170Y-79467052D01*
X106581456Y-79505500D01*
X106581459Y-79505500D01*
X106778543Y-79505500D01*
X106945894Y-79472211D01*
X106971835Y-79467051D01*
X107128567Y-79402131D01*
X107153907Y-79391635D01*
X107153907Y-79391634D01*
X107153914Y-79391632D01*
X107317782Y-79282139D01*
X107457139Y-79142782D01*
X107566632Y-78978914D01*
X107568383Y-78974688D01*
X107596462Y-78906897D01*
X107642051Y-78796835D01*
X107680500Y-78603541D01*
X107680500Y-77606459D01*
X107680500Y-77606456D01*
X107642052Y-77413170D01*
X107642051Y-77413169D01*
X107642051Y-77413165D01*
X107601561Y-77315412D01*
X107566635Y-77231092D01*
X107566628Y-77231079D01*
X107457139Y-77067218D01*
X107457136Y-77067214D01*
X107329103Y-76939181D01*
X107295618Y-76877858D01*
X107300602Y-76808166D01*
X107342474Y-76752233D01*
X107407938Y-76727816D01*
X107416784Y-76727500D01*
X108483216Y-76727500D01*
X108550255Y-76747185D01*
X108596010Y-76799989D01*
X108605954Y-76869147D01*
X108576929Y-76932703D01*
X108570897Y-76939181D01*
X108442863Y-77067214D01*
X108442860Y-77067218D01*
X108333371Y-77231079D01*
X108333364Y-77231092D01*
X108257950Y-77413160D01*
X108257947Y-77413170D01*
X108219500Y-77606456D01*
X108219500Y-77606459D01*
X108219500Y-78603541D01*
X108219500Y-78603543D01*
X108219499Y-78603543D01*
X108257947Y-78796829D01*
X108257950Y-78796839D01*
X108333364Y-78978907D01*
X108333371Y-78978920D01*
X108442860Y-79142781D01*
X108442863Y-79142785D01*
X108582214Y-79282136D01*
X108582218Y-79282139D01*
X108746079Y-79391628D01*
X108746092Y-79391635D01*
X108921709Y-79464377D01*
X108928165Y-79467051D01*
X108928169Y-79467051D01*
X108928170Y-79467052D01*
X109121456Y-79505500D01*
X109121459Y-79505500D01*
X109318543Y-79505500D01*
X109485894Y-79472211D01*
X109511835Y-79467051D01*
X109668567Y-79402131D01*
X109693907Y-79391635D01*
X109693907Y-79391634D01*
X109693914Y-79391632D01*
X109857782Y-79282139D01*
X109997139Y-79142782D01*
X110106632Y-78978914D01*
X110108383Y-78974688D01*
X110136462Y-78906897D01*
X110182051Y-78796835D01*
X110220500Y-78603541D01*
X110220500Y-77606459D01*
X110220500Y-77606456D01*
X110182052Y-77413170D01*
X110182051Y-77413169D01*
X110182051Y-77413165D01*
X110141561Y-77315412D01*
X110106635Y-77231092D01*
X110106628Y-77231079D01*
X109997139Y-77067218D01*
X109997136Y-77067214D01*
X109869103Y-76939181D01*
X109835618Y-76877858D01*
X109840602Y-76808166D01*
X109882474Y-76752233D01*
X109947938Y-76727816D01*
X109956784Y-76727500D01*
X111023216Y-76727500D01*
X111090255Y-76747185D01*
X111136010Y-76799989D01*
X111145954Y-76869147D01*
X111116929Y-76932703D01*
X111110897Y-76939181D01*
X110982863Y-77067214D01*
X110982860Y-77067218D01*
X110873371Y-77231079D01*
X110873364Y-77231092D01*
X110797950Y-77413160D01*
X110797947Y-77413170D01*
X110759500Y-77606456D01*
X110759500Y-77606459D01*
X110759500Y-78603541D01*
X110759500Y-78603543D01*
X110759499Y-78603543D01*
X110797947Y-78796829D01*
X110797950Y-78796839D01*
X110873364Y-78978907D01*
X110873371Y-78978920D01*
X110982860Y-79142781D01*
X110982863Y-79142785D01*
X111122214Y-79282136D01*
X111122218Y-79282139D01*
X111286079Y-79391628D01*
X111286092Y-79391635D01*
X111461709Y-79464377D01*
X111468165Y-79467051D01*
X111468169Y-79467051D01*
X111468170Y-79467052D01*
X111661456Y-79505500D01*
X111661459Y-79505500D01*
X111858543Y-79505500D01*
X112025894Y-79472211D01*
X112051835Y-79467051D01*
X112208567Y-79402131D01*
X112233907Y-79391635D01*
X112233907Y-79391634D01*
X112233914Y-79391632D01*
X112397782Y-79282139D01*
X112537139Y-79142782D01*
X112646632Y-78978914D01*
X112648383Y-78974688D01*
X112676462Y-78906897D01*
X112722051Y-78796835D01*
X112760500Y-78603541D01*
X112760500Y-77606459D01*
X112760500Y-77606456D01*
X112722052Y-77413170D01*
X112722051Y-77413169D01*
X112722051Y-77413165D01*
X112681561Y-77315412D01*
X112646635Y-77231092D01*
X112646628Y-77231079D01*
X112537139Y-77067218D01*
X112537136Y-77067214D01*
X112409103Y-76939181D01*
X112375618Y-76877858D01*
X112380602Y-76808166D01*
X112422474Y-76752233D01*
X112487938Y-76727816D01*
X112496784Y-76727500D01*
X113563216Y-76727500D01*
X113630255Y-76747185D01*
X113676010Y-76799989D01*
X113685954Y-76869147D01*
X113656929Y-76932703D01*
X113650897Y-76939181D01*
X113522863Y-77067214D01*
X113522860Y-77067218D01*
X113413371Y-77231079D01*
X113413364Y-77231092D01*
X113337950Y-77413160D01*
X113337947Y-77413170D01*
X113299500Y-77606456D01*
X113299500Y-77606459D01*
X113299500Y-78603541D01*
X113299500Y-78603543D01*
X113299499Y-78603543D01*
X113337947Y-78796829D01*
X113337950Y-78796839D01*
X113413364Y-78978907D01*
X113413371Y-78978920D01*
X113522860Y-79142781D01*
X113522863Y-79142785D01*
X113662214Y-79282136D01*
X113662218Y-79282139D01*
X113826079Y-79391628D01*
X113826092Y-79391635D01*
X114001709Y-79464377D01*
X114008165Y-79467051D01*
X114008169Y-79467051D01*
X114008170Y-79467052D01*
X114201456Y-79505500D01*
X114201459Y-79505500D01*
X114398543Y-79505500D01*
X114565894Y-79472211D01*
X114591835Y-79467051D01*
X114748567Y-79402131D01*
X114773907Y-79391635D01*
X114773907Y-79391634D01*
X114773914Y-79391632D01*
X114937782Y-79282139D01*
X115077139Y-79142782D01*
X115186632Y-78978914D01*
X115188383Y-78974688D01*
X115216462Y-78906897D01*
X115262051Y-78796835D01*
X115300500Y-78603541D01*
X115300500Y-77606459D01*
X115300500Y-77606456D01*
X115262052Y-77413170D01*
X115262051Y-77413169D01*
X115262051Y-77413165D01*
X115221561Y-77315412D01*
X115186635Y-77231092D01*
X115186628Y-77231079D01*
X115077139Y-77067218D01*
X115077136Y-77067214D01*
X114949103Y-76939181D01*
X114915618Y-76877858D01*
X114920602Y-76808166D01*
X114962474Y-76752233D01*
X115027938Y-76727816D01*
X115036784Y-76727500D01*
X116103216Y-76727500D01*
X116170255Y-76747185D01*
X116216010Y-76799989D01*
X116225954Y-76869147D01*
X116196929Y-76932703D01*
X116190897Y-76939181D01*
X116062863Y-77067214D01*
X116062860Y-77067218D01*
X115953371Y-77231079D01*
X115953364Y-77231092D01*
X115877950Y-77413160D01*
X115877947Y-77413170D01*
X115839500Y-77606456D01*
X115839500Y-77606459D01*
X115839500Y-78603541D01*
X115839500Y-78603543D01*
X115839499Y-78603543D01*
X115877947Y-78796829D01*
X115877950Y-78796839D01*
X115953364Y-78978907D01*
X115953371Y-78978920D01*
X116062860Y-79142781D01*
X116062863Y-79142785D01*
X116202214Y-79282136D01*
X116202218Y-79282139D01*
X116366079Y-79391628D01*
X116366092Y-79391635D01*
X116541709Y-79464377D01*
X116548165Y-79467051D01*
X116548169Y-79467051D01*
X116548170Y-79467052D01*
X116741456Y-79505500D01*
X116741459Y-79505500D01*
X116938543Y-79505500D01*
X117105894Y-79472211D01*
X117131835Y-79467051D01*
X117288567Y-79402131D01*
X117313907Y-79391635D01*
X117313907Y-79391634D01*
X117313914Y-79391632D01*
X117477782Y-79282139D01*
X117617139Y-79142782D01*
X117726632Y-78978914D01*
X117728383Y-78974688D01*
X117756462Y-78906897D01*
X117802051Y-78796835D01*
X117840500Y-78603541D01*
X117840500Y-77606459D01*
X117840500Y-77606456D01*
X117802052Y-77413170D01*
X117802051Y-77413169D01*
X117802051Y-77413165D01*
X117761561Y-77315412D01*
X117726635Y-77231092D01*
X117726628Y-77231079D01*
X117617139Y-77067218D01*
X117617136Y-77067214D01*
X117489103Y-76939181D01*
X117455618Y-76877858D01*
X117460602Y-76808166D01*
X117502474Y-76752233D01*
X117567938Y-76727816D01*
X117576784Y-76727500D01*
X118643216Y-76727500D01*
X118710255Y-76747185D01*
X118756010Y-76799989D01*
X118765954Y-76869147D01*
X118736929Y-76932703D01*
X118730897Y-76939181D01*
X118602863Y-77067214D01*
X118602860Y-77067218D01*
X118493371Y-77231079D01*
X118493364Y-77231092D01*
X118417950Y-77413160D01*
X118417947Y-77413170D01*
X118379500Y-77606456D01*
X118379500Y-77606459D01*
X118379500Y-78603541D01*
X118379500Y-78603543D01*
X118379499Y-78603543D01*
X118417947Y-78796829D01*
X118417950Y-78796839D01*
X118493364Y-78978907D01*
X118493371Y-78978920D01*
X118602860Y-79142781D01*
X118602863Y-79142785D01*
X118742214Y-79282136D01*
X118742218Y-79282139D01*
X118906079Y-79391628D01*
X118906092Y-79391635D01*
X119081709Y-79464377D01*
X119088165Y-79467051D01*
X119088169Y-79467051D01*
X119088170Y-79467052D01*
X119281456Y-79505500D01*
X119281459Y-79505500D01*
X119478543Y-79505500D01*
X119645894Y-79472211D01*
X119671835Y-79467051D01*
X119828567Y-79402131D01*
X119853907Y-79391635D01*
X119853907Y-79391634D01*
X119853914Y-79391632D01*
X120017782Y-79282139D01*
X120157139Y-79142782D01*
X120266632Y-78978914D01*
X120268383Y-78974688D01*
X120296462Y-78906897D01*
X120342051Y-78796835D01*
X120380500Y-78603541D01*
X120380500Y-77606459D01*
X120380500Y-77606456D01*
X120342052Y-77413170D01*
X120342051Y-77413169D01*
X120342051Y-77413165D01*
X120301561Y-77315412D01*
X120266635Y-77231092D01*
X120266628Y-77231079D01*
X120157139Y-77067218D01*
X120157136Y-77067214D01*
X120029103Y-76939181D01*
X119995618Y-76877858D01*
X120000602Y-76808166D01*
X120042474Y-76752233D01*
X120107938Y-76727816D01*
X120116784Y-76727500D01*
X121183216Y-76727500D01*
X121250255Y-76747185D01*
X121296010Y-76799989D01*
X121305954Y-76869147D01*
X121276929Y-76932703D01*
X121270897Y-76939181D01*
X121142863Y-77067214D01*
X121142860Y-77067218D01*
X121033371Y-77231079D01*
X121033364Y-77231092D01*
X120957950Y-77413160D01*
X120957947Y-77413170D01*
X120919500Y-77606456D01*
X120919500Y-77606459D01*
X120919500Y-78603541D01*
X120919500Y-78603543D01*
X120919499Y-78603543D01*
X120957947Y-78796829D01*
X120957950Y-78796839D01*
X121033364Y-78978907D01*
X121033371Y-78978920D01*
X121142860Y-79142781D01*
X121142863Y-79142785D01*
X121282214Y-79282136D01*
X121282218Y-79282139D01*
X121446079Y-79391628D01*
X121446092Y-79391635D01*
X121621709Y-79464377D01*
X121628165Y-79467051D01*
X121628169Y-79467051D01*
X121628170Y-79467052D01*
X121821456Y-79505500D01*
X121821459Y-79505500D01*
X122018543Y-79505500D01*
X122185894Y-79472211D01*
X122211835Y-79467051D01*
X122368567Y-79402131D01*
X122393907Y-79391635D01*
X122393907Y-79391634D01*
X122393914Y-79391632D01*
X122557782Y-79282139D01*
X122697139Y-79142782D01*
X122806632Y-78978914D01*
X122808383Y-78974688D01*
X122836462Y-78906897D01*
X122882051Y-78796835D01*
X122920500Y-78603541D01*
X122920500Y-77606459D01*
X122920500Y-77606456D01*
X122882052Y-77413170D01*
X122882051Y-77413169D01*
X122882051Y-77413165D01*
X122841561Y-77315412D01*
X122806635Y-77231092D01*
X122806628Y-77231079D01*
X122697139Y-77067218D01*
X122697136Y-77067214D01*
X122569103Y-76939181D01*
X122535618Y-76877858D01*
X122540602Y-76808166D01*
X122582474Y-76752233D01*
X122647938Y-76727816D01*
X122656784Y-76727500D01*
X123723216Y-76727500D01*
X123790255Y-76747185D01*
X123836010Y-76799989D01*
X123845954Y-76869147D01*
X123816929Y-76932703D01*
X123810897Y-76939181D01*
X123682863Y-77067214D01*
X123682860Y-77067218D01*
X123573371Y-77231079D01*
X123573364Y-77231092D01*
X123497950Y-77413160D01*
X123497947Y-77413170D01*
X123459500Y-77606456D01*
X123459500Y-77606459D01*
X123459500Y-78603541D01*
X123459500Y-78603543D01*
X123459499Y-78603543D01*
X123497947Y-78796829D01*
X123497950Y-78796839D01*
X123573364Y-78978907D01*
X123573371Y-78978920D01*
X123682860Y-79142781D01*
X123682863Y-79142785D01*
X123822214Y-79282136D01*
X123822218Y-79282139D01*
X123986079Y-79391628D01*
X123986092Y-79391635D01*
X124161709Y-79464377D01*
X124168165Y-79467051D01*
X124168169Y-79467051D01*
X124168170Y-79467052D01*
X124361456Y-79505500D01*
X124361459Y-79505500D01*
X124558543Y-79505500D01*
X124725894Y-79472211D01*
X124751835Y-79467051D01*
X124908567Y-79402131D01*
X124933907Y-79391635D01*
X124933907Y-79391634D01*
X124933914Y-79391632D01*
X125097782Y-79282139D01*
X125237139Y-79142782D01*
X125346632Y-78978914D01*
X125348383Y-78974688D01*
X125376462Y-78906897D01*
X125422051Y-78796835D01*
X125460500Y-78603541D01*
X125460500Y-77606459D01*
X125460500Y-77606456D01*
X125422052Y-77413170D01*
X125422051Y-77413169D01*
X125422051Y-77413165D01*
X125381561Y-77315412D01*
X125346635Y-77231092D01*
X125346628Y-77231079D01*
X125237139Y-77067218D01*
X125237136Y-77067214D01*
X125109103Y-76939181D01*
X125075618Y-76877858D01*
X125080602Y-76808166D01*
X125122474Y-76752233D01*
X125187938Y-76727816D01*
X125196784Y-76727500D01*
X126263216Y-76727500D01*
X126330255Y-76747185D01*
X126376010Y-76799989D01*
X126385954Y-76869147D01*
X126356929Y-76932703D01*
X126350897Y-76939181D01*
X126222863Y-77067214D01*
X126222860Y-77067218D01*
X126113371Y-77231079D01*
X126113364Y-77231092D01*
X126037950Y-77413160D01*
X126037947Y-77413170D01*
X125999500Y-77606456D01*
X125999500Y-77606459D01*
X125999500Y-78603541D01*
X125999500Y-78603543D01*
X125999499Y-78603543D01*
X126037947Y-78796829D01*
X126037950Y-78796839D01*
X126113364Y-78978907D01*
X126113371Y-78978920D01*
X126222860Y-79142781D01*
X126222863Y-79142785D01*
X126362214Y-79282136D01*
X126362218Y-79282139D01*
X126526079Y-79391628D01*
X126526092Y-79391635D01*
X126701709Y-79464377D01*
X126708165Y-79467051D01*
X126708169Y-79467051D01*
X126708170Y-79467052D01*
X126901456Y-79505500D01*
X126901459Y-79505500D01*
X127098543Y-79505500D01*
X127258720Y-79473638D01*
X127290024Y-79467411D01*
X127359616Y-79473638D01*
X127414793Y-79516501D01*
X127438038Y-79582390D01*
X127421970Y-79650387D01*
X127401897Y-79676709D01*
X125727426Y-81351181D01*
X125666103Y-81384666D01*
X125639745Y-81387500D01*
X122988290Y-81387500D01*
X122921251Y-81367815D01*
X122883297Y-81329473D01*
X122855817Y-81285739D01*
X122728262Y-81158184D01*
X122575523Y-81062211D01*
X122405254Y-81002631D01*
X122405249Y-81002630D01*
X122226004Y-80982435D01*
X122225996Y-80982435D01*
X122046750Y-81002630D01*
X122046745Y-81002631D01*
X121876476Y-81062211D01*
X121723737Y-81158184D01*
X121596184Y-81285737D01*
X121500211Y-81438476D01*
X121440631Y-81608745D01*
X121440630Y-81608750D01*
X121420435Y-81787996D01*
X121420435Y-81788003D01*
X121440630Y-81967249D01*
X121440631Y-81967254D01*
X121500211Y-82137523D01*
X121557783Y-82229147D01*
X121596184Y-82290262D01*
X121723738Y-82417816D01*
X121876478Y-82513789D01*
X122046745Y-82573368D01*
X122046750Y-82573369D01*
X122225996Y-82593565D01*
X122226000Y-82593565D01*
X122226004Y-82593565D01*
X122405249Y-82573369D01*
X122405252Y-82573368D01*
X122405255Y-82573368D01*
X122575522Y-82513789D01*
X122728262Y-82417816D01*
X122855816Y-82290262D01*
X122866825Y-82272741D01*
X122883297Y-82246527D01*
X122935631Y-82200237D01*
X122988290Y-82188500D01*
X125909725Y-82188500D01*
X125909727Y-82188500D01*
X126011588Y-82161207D01*
X126102913Y-82108480D01*
X128846467Y-79364923D01*
X128907788Y-79331440D01*
X128977479Y-79336424D01*
X129003037Y-79349504D01*
X129032872Y-79369439D01*
X129066086Y-79391632D01*
X129066088Y-79391633D01*
X129066092Y-79391635D01*
X129241709Y-79464377D01*
X129248165Y-79467051D01*
X129248169Y-79467051D01*
X129248170Y-79467052D01*
X129441456Y-79505500D01*
X129441459Y-79505500D01*
X129638543Y-79505500D01*
X129805894Y-79472211D01*
X129831835Y-79467051D01*
X129988567Y-79402131D01*
X130013907Y-79391635D01*
X130013907Y-79391634D01*
X130013914Y-79391632D01*
X130177782Y-79282139D01*
X130317139Y-79142782D01*
X130426632Y-78978914D01*
X130428383Y-78974688D01*
X130456462Y-78906897D01*
X130502051Y-78796835D01*
X130540500Y-78603541D01*
X130540500Y-77606459D01*
X130540500Y-77606456D01*
X130502052Y-77413170D01*
X130502051Y-77413169D01*
X130502051Y-77413165D01*
X130461561Y-77315412D01*
X130426635Y-77231092D01*
X130426628Y-77231079D01*
X130317139Y-77067218D01*
X130317136Y-77067214D01*
X130189103Y-76939181D01*
X130155618Y-76877858D01*
X130160602Y-76808166D01*
X130202474Y-76752233D01*
X130267938Y-76727816D01*
X130276784Y-76727500D01*
X131343216Y-76727500D01*
X131410255Y-76747185D01*
X131456010Y-76799989D01*
X131465954Y-76869147D01*
X131436929Y-76932703D01*
X131430897Y-76939181D01*
X131302863Y-77067214D01*
X131302860Y-77067218D01*
X131193371Y-77231079D01*
X131193364Y-77231092D01*
X131117950Y-77413160D01*
X131117947Y-77413170D01*
X131079500Y-77606456D01*
X131079500Y-77606459D01*
X131079500Y-78603541D01*
X131079500Y-78603543D01*
X131079499Y-78603543D01*
X131117947Y-78796829D01*
X131117950Y-78796839D01*
X131193364Y-78978907D01*
X131193371Y-78978920D01*
X131302860Y-79142781D01*
X131302863Y-79142785D01*
X131442214Y-79282136D01*
X131442218Y-79282139D01*
X131606079Y-79391628D01*
X131606092Y-79391635D01*
X131781709Y-79464377D01*
X131788165Y-79467051D01*
X131788169Y-79467051D01*
X131788170Y-79467052D01*
X131981456Y-79505500D01*
X131981459Y-79505500D01*
X132178543Y-79505500D01*
X132345894Y-79472211D01*
X132371835Y-79467051D01*
X132528567Y-79402131D01*
X132553907Y-79391635D01*
X132553907Y-79391634D01*
X132553914Y-79391632D01*
X132717782Y-79282139D01*
X132857139Y-79142782D01*
X132966632Y-78978914D01*
X132968383Y-78974688D01*
X132996462Y-78906897D01*
X133042051Y-78796835D01*
X133080500Y-78603541D01*
X133080500Y-77606459D01*
X133080500Y-77606456D01*
X133042052Y-77413170D01*
X133042051Y-77413169D01*
X133042051Y-77413165D01*
X133001561Y-77315412D01*
X132966635Y-77231092D01*
X132966628Y-77231079D01*
X132857139Y-77067218D01*
X132857136Y-77067214D01*
X132729103Y-76939181D01*
X132695618Y-76877858D01*
X132700602Y-76808166D01*
X132742474Y-76752233D01*
X132807938Y-76727816D01*
X132816784Y-76727500D01*
X133883216Y-76727500D01*
X133950255Y-76747185D01*
X133996010Y-76799989D01*
X134005954Y-76869147D01*
X133976929Y-76932703D01*
X133970897Y-76939181D01*
X133842863Y-77067214D01*
X133842860Y-77067218D01*
X133733371Y-77231079D01*
X133733364Y-77231092D01*
X133657950Y-77413160D01*
X133657947Y-77413170D01*
X133619500Y-77606456D01*
X133619500Y-77606459D01*
X133619500Y-78603541D01*
X133619500Y-78603543D01*
X133619499Y-78603543D01*
X133657947Y-78796829D01*
X133657950Y-78796839D01*
X133733364Y-78978907D01*
X133733371Y-78978920D01*
X133842860Y-79142781D01*
X133842863Y-79142785D01*
X133982214Y-79282136D01*
X133982218Y-79282139D01*
X134146079Y-79391628D01*
X134146092Y-79391635D01*
X134321709Y-79464377D01*
X134328165Y-79467051D01*
X134328169Y-79467051D01*
X134328170Y-79467052D01*
X134521456Y-79505500D01*
X134521459Y-79505500D01*
X134718543Y-79505500D01*
X134885894Y-79472211D01*
X134911835Y-79467051D01*
X135068567Y-79402131D01*
X135093907Y-79391635D01*
X135093907Y-79391634D01*
X135093914Y-79391632D01*
X135257782Y-79282139D01*
X135397139Y-79142782D01*
X135506632Y-78978914D01*
X135508383Y-78974688D01*
X135536462Y-78906897D01*
X135582051Y-78796835D01*
X135620500Y-78603541D01*
X135620500Y-77606459D01*
X135620500Y-77606456D01*
X135582052Y-77413170D01*
X135582051Y-77413169D01*
X135582051Y-77413165D01*
X135541561Y-77315412D01*
X135506635Y-77231092D01*
X135506628Y-77231079D01*
X135397139Y-77067218D01*
X135397136Y-77067214D01*
X135269103Y-76939181D01*
X135235618Y-76877858D01*
X135240602Y-76808166D01*
X135282474Y-76752233D01*
X135347938Y-76727816D01*
X135356784Y-76727500D01*
X136423216Y-76727500D01*
X136490255Y-76747185D01*
X136536010Y-76799989D01*
X136545954Y-76869147D01*
X136516929Y-76932703D01*
X136510897Y-76939181D01*
X136382863Y-77067214D01*
X136382860Y-77067218D01*
X136273371Y-77231079D01*
X136273364Y-77231092D01*
X136197950Y-77413160D01*
X136197947Y-77413170D01*
X136159500Y-77606456D01*
X136159500Y-77606459D01*
X136159500Y-78603541D01*
X136159500Y-78603543D01*
X136159499Y-78603543D01*
X136197947Y-78796829D01*
X136197950Y-78796839D01*
X136273364Y-78978907D01*
X136273371Y-78978920D01*
X136382860Y-79142781D01*
X136382863Y-79142785D01*
X136522214Y-79282136D01*
X136522218Y-79282139D01*
X136686079Y-79391628D01*
X136686092Y-79391635D01*
X136861709Y-79464377D01*
X136868165Y-79467051D01*
X136868169Y-79467051D01*
X136868170Y-79467052D01*
X137061456Y-79505500D01*
X137061459Y-79505500D01*
X137258543Y-79505500D01*
X137425894Y-79472211D01*
X137451835Y-79467051D01*
X137608567Y-79402131D01*
X137633907Y-79391635D01*
X137633907Y-79391634D01*
X137633914Y-79391632D01*
X137797782Y-79282139D01*
X137849417Y-79230504D01*
X137910740Y-79197018D01*
X137980432Y-79202002D01*
X138035472Y-79242694D01*
X138039519Y-79247968D01*
X143490123Y-84698571D01*
X143490133Y-84698582D01*
X143494463Y-84702912D01*
X143494464Y-84702913D01*
X143569031Y-84777480D01*
X143602690Y-84796913D01*
X143615865Y-84804520D01*
X143660356Y-84830207D01*
X143762217Y-84857500D01*
X143867671Y-84857500D01*
X146964925Y-84857500D01*
X147031964Y-84877185D01*
X147077719Y-84929989D01*
X147087663Y-84999147D01*
X147058638Y-85062703D01*
X147023377Y-85090859D01*
X147015463Y-85095088D01*
X147015460Y-85095090D01*
X146863116Y-85220116D01*
X146738090Y-85372460D01*
X146738086Y-85372467D01*
X146645188Y-85546266D01*
X146587975Y-85734870D01*
X146568659Y-85931000D01*
X146587976Y-86127132D01*
X146600032Y-86166878D01*
X146600655Y-86236745D01*
X146569052Y-86290553D01*
X140814223Y-92045383D01*
X140752900Y-92078868D01*
X140683208Y-92073884D01*
X140638861Y-92045383D01*
X140546895Y-91953417D01*
X140381349Y-91833140D01*
X140199029Y-91740244D01*
X140004413Y-91677009D01*
X139950000Y-91668390D01*
X139950000Y-93029314D01*
X139945606Y-93024920D01*
X139854394Y-92972259D01*
X139752661Y-92945000D01*
X139647339Y-92945000D01*
X139545606Y-92972259D01*
X139454394Y-93024920D01*
X139450000Y-93029314D01*
X139450000Y-91668390D01*
X139395586Y-91677009D01*
X139200970Y-91740244D01*
X139018650Y-91833140D01*
X138853105Y-91953417D01*
X138853104Y-91953417D01*
X138708417Y-92098104D01*
X138708417Y-92098105D01*
X138588140Y-92263650D01*
X138495244Y-92445968D01*
X138432010Y-92640581D01*
X138402124Y-92829269D01*
X138372194Y-92892403D01*
X138312883Y-92929334D01*
X138243020Y-92928336D01*
X138184788Y-92889726D01*
X138158034Y-92834061D01*
X138148130Y-92784273D01*
X138122051Y-92653165D01*
X138071120Y-92530206D01*
X138046635Y-92471092D01*
X138046628Y-92471079D01*
X137937139Y-92307218D01*
X137937136Y-92307214D01*
X137797785Y-92167863D01*
X137797781Y-92167860D01*
X137633920Y-92058371D01*
X137633907Y-92058364D01*
X137451839Y-91982950D01*
X137451829Y-91982947D01*
X137258543Y-91944500D01*
X137258541Y-91944500D01*
X137061459Y-91944500D01*
X137061457Y-91944500D01*
X136868170Y-91982947D01*
X136868160Y-91982950D01*
X136686093Y-92058364D01*
X136686077Y-92058373D01*
X136623036Y-92100495D01*
X136556359Y-92121372D01*
X136488979Y-92102887D01*
X136466466Y-92085073D01*
X132833915Y-88452522D01*
X132833913Y-88452520D01*
X132788250Y-88426156D01*
X132742589Y-88399793D01*
X132661899Y-88378173D01*
X132640727Y-88372500D01*
X132640726Y-88372500D01*
X113710847Y-88372500D01*
X113643808Y-88352815D01*
X113598053Y-88300011D01*
X113593812Y-88289471D01*
X113574793Y-88235118D01*
X113494150Y-88125850D01*
X113384882Y-88045207D01*
X113384880Y-88045206D01*
X113256700Y-88000353D01*
X113226270Y-87997500D01*
X113226266Y-87997500D01*
X111817734Y-87997500D01*
X111817730Y-87997500D01*
X111787300Y-88000353D01*
X111787298Y-88000353D01*
X111659119Y-88045206D01*
X111659117Y-88045207D01*
X111549850Y-88125850D01*
X111470499Y-88233368D01*
X111469207Y-88235118D01*
X111450193Y-88289456D01*
X111409473Y-88346231D01*
X111344520Y-88371978D01*
X111333153Y-88372500D01*
X110058339Y-88372500D01*
X110058323Y-88372499D01*
X110050727Y-88372499D01*
X109969264Y-88372499D01*
X109902225Y-88352814D01*
X109890597Y-88344350D01*
X109888783Y-88342861D01*
X109724920Y-88233371D01*
X109724907Y-88233364D01*
X109542839Y-88157950D01*
X109542829Y-88157947D01*
X109349543Y-88119500D01*
X109349541Y-88119500D01*
X109152459Y-88119500D01*
X109152457Y-88119500D01*
X108959170Y-88157947D01*
X108959160Y-88157950D01*
X108777092Y-88233364D01*
X108777079Y-88233371D01*
X108613218Y-88342860D01*
X108613214Y-88342863D01*
X108473863Y-88482214D01*
X108473860Y-88482218D01*
X108364371Y-88646079D01*
X108364364Y-88646092D01*
X108288950Y-88828160D01*
X108288947Y-88828170D01*
X108250500Y-89021456D01*
X108250500Y-89021459D01*
X108250500Y-90018541D01*
X108250500Y-90018543D01*
X108250499Y-90018543D01*
X108288947Y-90211829D01*
X108288950Y-90211839D01*
X108364364Y-90393907D01*
X108364371Y-90393920D01*
X108473860Y-90557781D01*
X108473863Y-90557785D01*
X108613214Y-90697136D01*
X108613218Y-90697139D01*
X108777079Y-90806628D01*
X108777092Y-90806635D01*
X108959160Y-90882049D01*
X108959165Y-90882051D01*
X108959169Y-90882051D01*
X108959170Y-90882052D01*
X109152456Y-90920500D01*
X109152459Y-90920500D01*
X109349543Y-90920500D01*
X109479582Y-90894632D01*
X109542835Y-90882051D01*
X109724914Y-90806632D01*
X109888782Y-90697139D01*
X110028139Y-90557782D01*
X110137632Y-90393914D01*
X110213051Y-90211835D01*
X110231119Y-90121000D01*
X110251500Y-90018543D01*
X110251500Y-89297500D01*
X110271185Y-89230461D01*
X110323989Y-89184706D01*
X110375500Y-89173500D01*
X111333153Y-89173500D01*
X111400192Y-89193185D01*
X111445947Y-89245989D01*
X111450187Y-89256528D01*
X111469207Y-89310882D01*
X111549850Y-89420150D01*
X111659118Y-89500793D01*
X111701845Y-89515744D01*
X111787299Y-89545646D01*
X111817730Y-89548500D01*
X111817734Y-89548500D01*
X113226270Y-89548500D01*
X113256699Y-89545646D01*
X113256701Y-89545646D01*
X113342151Y-89515745D01*
X113384882Y-89500793D01*
X113494150Y-89420150D01*
X113574793Y-89310882D01*
X113593806Y-89256543D01*
X113634527Y-89199769D01*
X113699480Y-89174022D01*
X113710847Y-89173500D01*
X132370745Y-89173500D01*
X132437784Y-89193185D01*
X132458426Y-89209819D01*
X135021897Y-91773290D01*
X135055382Y-91834613D01*
X135050398Y-91904305D01*
X135008526Y-91960238D01*
X134943062Y-91984655D01*
X134910025Y-91982588D01*
X134718544Y-91944500D01*
X134718541Y-91944500D01*
X134521459Y-91944500D01*
X134521457Y-91944500D01*
X134328170Y-91982947D01*
X134328160Y-91982950D01*
X134146092Y-92058364D01*
X134146079Y-92058371D01*
X133982218Y-92167860D01*
X133861944Y-92288134D01*
X133800621Y-92321618D01*
X133730929Y-92316634D01*
X133686582Y-92288133D01*
X132822971Y-91424522D01*
X132822969Y-91424520D01*
X132746881Y-91380590D01*
X132731645Y-91371793D01*
X132680713Y-91358146D01*
X132629783Y-91344500D01*
X132629782Y-91344500D01*
X92165254Y-91344500D01*
X92098215Y-91324815D01*
X92077573Y-91308181D01*
X90787936Y-90018543D01*
X93010499Y-90018543D01*
X93048947Y-90211829D01*
X93048950Y-90211839D01*
X93124364Y-90393907D01*
X93124371Y-90393920D01*
X93233860Y-90557781D01*
X93233863Y-90557785D01*
X93373214Y-90697136D01*
X93373218Y-90697139D01*
X93537079Y-90806628D01*
X93537092Y-90806635D01*
X93719160Y-90882049D01*
X93719165Y-90882051D01*
X93719169Y-90882051D01*
X93719170Y-90882052D01*
X93912456Y-90920500D01*
X93912459Y-90920500D01*
X94109543Y-90920500D01*
X94239582Y-90894632D01*
X94302835Y-90882051D01*
X94484914Y-90806632D01*
X94648782Y-90697139D01*
X94788139Y-90557782D01*
X94897632Y-90393914D01*
X94973051Y-90211835D01*
X94991119Y-90121000D01*
X95011500Y-90018543D01*
X95550499Y-90018543D01*
X95588947Y-90211829D01*
X95588950Y-90211839D01*
X95664364Y-90393907D01*
X95664371Y-90393920D01*
X95773860Y-90557781D01*
X95773863Y-90557785D01*
X95913214Y-90697136D01*
X95913218Y-90697139D01*
X96077079Y-90806628D01*
X96077092Y-90806635D01*
X96259160Y-90882049D01*
X96259165Y-90882051D01*
X96259169Y-90882051D01*
X96259170Y-90882052D01*
X96452456Y-90920500D01*
X96452459Y-90920500D01*
X96649543Y-90920500D01*
X96779582Y-90894632D01*
X96842835Y-90882051D01*
X97024914Y-90806632D01*
X97188782Y-90697139D01*
X97328139Y-90557782D01*
X97437632Y-90393914D01*
X97513051Y-90211835D01*
X97531119Y-90121000D01*
X97551500Y-90018543D01*
X98090499Y-90018543D01*
X98128947Y-90211829D01*
X98128950Y-90211839D01*
X98204364Y-90393907D01*
X98204371Y-90393920D01*
X98313860Y-90557781D01*
X98313863Y-90557785D01*
X98453214Y-90697136D01*
X98453218Y-90697139D01*
X98617079Y-90806628D01*
X98617092Y-90806635D01*
X98799160Y-90882049D01*
X98799165Y-90882051D01*
X98799169Y-90882051D01*
X98799170Y-90882052D01*
X98992456Y-90920500D01*
X98992459Y-90920500D01*
X99189543Y-90920500D01*
X99319582Y-90894632D01*
X99382835Y-90882051D01*
X99564914Y-90806632D01*
X99728782Y-90697139D01*
X99868139Y-90557782D01*
X99977632Y-90393914D01*
X100053051Y-90211835D01*
X100071119Y-90121000D01*
X100091500Y-90018543D01*
X100630499Y-90018543D01*
X100668947Y-90211829D01*
X100668950Y-90211839D01*
X100744364Y-90393907D01*
X100744371Y-90393920D01*
X100853860Y-90557781D01*
X100853863Y-90557785D01*
X100993214Y-90697136D01*
X100993218Y-90697139D01*
X101157079Y-90806628D01*
X101157092Y-90806635D01*
X101339160Y-90882049D01*
X101339165Y-90882051D01*
X101339169Y-90882051D01*
X101339170Y-90882052D01*
X101532456Y-90920500D01*
X101532459Y-90920500D01*
X101729543Y-90920500D01*
X101859582Y-90894632D01*
X101922835Y-90882051D01*
X102104914Y-90806632D01*
X102268782Y-90697139D01*
X102408139Y-90557782D01*
X102517632Y-90393914D01*
X102593051Y-90211835D01*
X102611119Y-90121000D01*
X102631500Y-90018543D01*
X103170499Y-90018543D01*
X103208947Y-90211829D01*
X103208950Y-90211839D01*
X103284364Y-90393907D01*
X103284371Y-90393920D01*
X103393860Y-90557781D01*
X103393863Y-90557785D01*
X103533214Y-90697136D01*
X103533218Y-90697139D01*
X103697079Y-90806628D01*
X103697092Y-90806635D01*
X103879160Y-90882049D01*
X103879165Y-90882051D01*
X103879169Y-90882051D01*
X103879170Y-90882052D01*
X104072456Y-90920500D01*
X104072459Y-90920500D01*
X104269543Y-90920500D01*
X104399582Y-90894632D01*
X104462835Y-90882051D01*
X104644914Y-90806632D01*
X104808782Y-90697139D01*
X104948139Y-90557782D01*
X105057632Y-90393914D01*
X105133051Y-90211835D01*
X105151119Y-90121000D01*
X105171500Y-90018543D01*
X105710499Y-90018543D01*
X105748947Y-90211829D01*
X105748950Y-90211839D01*
X105824364Y-90393907D01*
X105824371Y-90393920D01*
X105933860Y-90557781D01*
X105933863Y-90557785D01*
X106073214Y-90697136D01*
X106073218Y-90697139D01*
X106237079Y-90806628D01*
X106237092Y-90806635D01*
X106419160Y-90882049D01*
X106419165Y-90882051D01*
X106419169Y-90882051D01*
X106419170Y-90882052D01*
X106612456Y-90920500D01*
X106612459Y-90920500D01*
X106809543Y-90920500D01*
X106939582Y-90894632D01*
X107002835Y-90882051D01*
X107184914Y-90806632D01*
X107348782Y-90697139D01*
X107488139Y-90557782D01*
X107597632Y-90393914D01*
X107673051Y-90211835D01*
X107691119Y-90121000D01*
X107711500Y-90018543D01*
X107711500Y-89021456D01*
X107673052Y-88828170D01*
X107673051Y-88828169D01*
X107673051Y-88828165D01*
X107655449Y-88785669D01*
X107597635Y-88646092D01*
X107597628Y-88646079D01*
X107488139Y-88482218D01*
X107488136Y-88482214D01*
X107348785Y-88342863D01*
X107348781Y-88342860D01*
X107184920Y-88233371D01*
X107184907Y-88233364D01*
X107002839Y-88157950D01*
X107002829Y-88157947D01*
X106809543Y-88119500D01*
X106809541Y-88119500D01*
X106612459Y-88119500D01*
X106612457Y-88119500D01*
X106419170Y-88157947D01*
X106419160Y-88157950D01*
X106237092Y-88233364D01*
X106237079Y-88233371D01*
X106073218Y-88342860D01*
X106073214Y-88342863D01*
X105933863Y-88482214D01*
X105933860Y-88482218D01*
X105824371Y-88646079D01*
X105824364Y-88646092D01*
X105748950Y-88828160D01*
X105748947Y-88828170D01*
X105710500Y-89021456D01*
X105710500Y-89021459D01*
X105710500Y-90018541D01*
X105710500Y-90018543D01*
X105710499Y-90018543D01*
X105171500Y-90018543D01*
X105171500Y-89021456D01*
X105133052Y-88828170D01*
X105133051Y-88828169D01*
X105133051Y-88828165D01*
X105115449Y-88785669D01*
X105057635Y-88646092D01*
X105057628Y-88646079D01*
X104948139Y-88482218D01*
X104948136Y-88482214D01*
X104808785Y-88342863D01*
X104808781Y-88342860D01*
X104644920Y-88233371D01*
X104644907Y-88233364D01*
X104462839Y-88157950D01*
X104462829Y-88157947D01*
X104269543Y-88119500D01*
X104269541Y-88119500D01*
X104072459Y-88119500D01*
X104072457Y-88119500D01*
X103879170Y-88157947D01*
X103879160Y-88157950D01*
X103697092Y-88233364D01*
X103697079Y-88233371D01*
X103533218Y-88342860D01*
X103533214Y-88342863D01*
X103393863Y-88482214D01*
X103393860Y-88482218D01*
X103284371Y-88646079D01*
X103284364Y-88646092D01*
X103208950Y-88828160D01*
X103208947Y-88828170D01*
X103170500Y-89021456D01*
X103170500Y-89021459D01*
X103170500Y-90018541D01*
X103170500Y-90018543D01*
X103170499Y-90018543D01*
X102631500Y-90018543D01*
X102631500Y-89021456D01*
X102593052Y-88828170D01*
X102593051Y-88828169D01*
X102593051Y-88828165D01*
X102575449Y-88785669D01*
X102517635Y-88646092D01*
X102517628Y-88646079D01*
X102408139Y-88482218D01*
X102408136Y-88482214D01*
X102268785Y-88342863D01*
X102268781Y-88342860D01*
X102104920Y-88233371D01*
X102104907Y-88233364D01*
X101922839Y-88157950D01*
X101922829Y-88157947D01*
X101729543Y-88119500D01*
X101729541Y-88119500D01*
X101532459Y-88119500D01*
X101532457Y-88119500D01*
X101339170Y-88157947D01*
X101339160Y-88157950D01*
X101157092Y-88233364D01*
X101157079Y-88233371D01*
X100993218Y-88342860D01*
X100993214Y-88342863D01*
X100853863Y-88482214D01*
X100853860Y-88482218D01*
X100744371Y-88646079D01*
X100744364Y-88646092D01*
X100668950Y-88828160D01*
X100668947Y-88828170D01*
X100630500Y-89021456D01*
X100630500Y-89021459D01*
X100630500Y-90018541D01*
X100630500Y-90018543D01*
X100630499Y-90018543D01*
X100091500Y-90018543D01*
X100091500Y-89021456D01*
X100053052Y-88828170D01*
X100053051Y-88828169D01*
X100053051Y-88828165D01*
X100035449Y-88785669D01*
X99977635Y-88646092D01*
X99977628Y-88646079D01*
X99868139Y-88482218D01*
X99868136Y-88482214D01*
X99728785Y-88342863D01*
X99728781Y-88342860D01*
X99564920Y-88233371D01*
X99564907Y-88233364D01*
X99382839Y-88157950D01*
X99382829Y-88157947D01*
X99189543Y-88119500D01*
X99189541Y-88119500D01*
X98992459Y-88119500D01*
X98992457Y-88119500D01*
X98799170Y-88157947D01*
X98799160Y-88157950D01*
X98617092Y-88233364D01*
X98617079Y-88233371D01*
X98453218Y-88342860D01*
X98453214Y-88342863D01*
X98313863Y-88482214D01*
X98313860Y-88482218D01*
X98204371Y-88646079D01*
X98204364Y-88646092D01*
X98128950Y-88828160D01*
X98128947Y-88828170D01*
X98090500Y-89021456D01*
X98090500Y-89021459D01*
X98090500Y-90018541D01*
X98090500Y-90018543D01*
X98090499Y-90018543D01*
X97551500Y-90018543D01*
X97551500Y-89021456D01*
X97513052Y-88828170D01*
X97513051Y-88828169D01*
X97513051Y-88828165D01*
X97495449Y-88785669D01*
X97437635Y-88646092D01*
X97437628Y-88646079D01*
X97328139Y-88482218D01*
X97328136Y-88482214D01*
X97188785Y-88342863D01*
X97188781Y-88342860D01*
X97024920Y-88233371D01*
X97024907Y-88233364D01*
X96842839Y-88157950D01*
X96842829Y-88157947D01*
X96649543Y-88119500D01*
X96649541Y-88119500D01*
X96452459Y-88119500D01*
X96452457Y-88119500D01*
X96259170Y-88157947D01*
X96259160Y-88157950D01*
X96077092Y-88233364D01*
X96077079Y-88233371D01*
X95913218Y-88342860D01*
X95913214Y-88342863D01*
X95773863Y-88482214D01*
X95773860Y-88482218D01*
X95664371Y-88646079D01*
X95664364Y-88646092D01*
X95588950Y-88828160D01*
X95588947Y-88828170D01*
X95550500Y-89021456D01*
X95550500Y-89021459D01*
X95550500Y-90018541D01*
X95550500Y-90018543D01*
X95550499Y-90018543D01*
X95011500Y-90018543D01*
X95011500Y-89021456D01*
X94973052Y-88828170D01*
X94973051Y-88828169D01*
X94973051Y-88828165D01*
X94955449Y-88785669D01*
X94897635Y-88646092D01*
X94897628Y-88646079D01*
X94788139Y-88482218D01*
X94788136Y-88482214D01*
X94648785Y-88342863D01*
X94648781Y-88342860D01*
X94484920Y-88233371D01*
X94484907Y-88233364D01*
X94302839Y-88157950D01*
X94302829Y-88157947D01*
X94109543Y-88119500D01*
X94109541Y-88119500D01*
X93912459Y-88119500D01*
X93912457Y-88119500D01*
X93719170Y-88157947D01*
X93719160Y-88157950D01*
X93537092Y-88233364D01*
X93537079Y-88233371D01*
X93373218Y-88342860D01*
X93373214Y-88342863D01*
X93233863Y-88482214D01*
X93233860Y-88482218D01*
X93124371Y-88646079D01*
X93124364Y-88646092D01*
X93048950Y-88828160D01*
X93048947Y-88828170D01*
X93010500Y-89021456D01*
X93010500Y-89021459D01*
X93010500Y-90018541D01*
X93010500Y-90018543D01*
X93010499Y-90018543D01*
X90787936Y-90018543D01*
X90372819Y-89603426D01*
X90339334Y-89542103D01*
X90336500Y-89515745D01*
X90336500Y-86202524D01*
X90337833Y-86197986D01*
X111122001Y-86197986D01*
X111132494Y-86300697D01*
X111187641Y-86467119D01*
X111187643Y-86467124D01*
X111279684Y-86616345D01*
X111403654Y-86740315D01*
X111552875Y-86832356D01*
X111552880Y-86832358D01*
X111719302Y-86887505D01*
X111719309Y-86887506D01*
X111822019Y-86897999D01*
X112271999Y-86897999D01*
X112772000Y-86897999D01*
X113221972Y-86897999D01*
X113221986Y-86897998D01*
X113324697Y-86887505D01*
X113491119Y-86832358D01*
X113491124Y-86832356D01*
X113640345Y-86740315D01*
X113764315Y-86616345D01*
X113856356Y-86467124D01*
X113856358Y-86467119D01*
X113911505Y-86300697D01*
X113911506Y-86300690D01*
X113921999Y-86197986D01*
X113922000Y-86197973D01*
X113922000Y-86073000D01*
X112772000Y-86073000D01*
X112772000Y-86897999D01*
X112271999Y-86897999D01*
X112272000Y-86897998D01*
X112272000Y-86073000D01*
X111122001Y-86073000D01*
X111122001Y-86197986D01*
X90337833Y-86197986D01*
X90356185Y-86135485D01*
X90408989Y-86089730D01*
X90446617Y-86079304D01*
X90468073Y-86076886D01*
X90481728Y-86075348D01*
X90490724Y-86071015D01*
X90526354Y-86053857D01*
X90595295Y-86042504D01*
X90632336Y-86058055D01*
X90634248Y-86054087D01*
X90646835Y-86060148D01*
X90646836Y-86060148D01*
X90646837Y-86060149D01*
X90713428Y-86075348D01*
X90735995Y-86080499D01*
X90736000Y-86080500D01*
X91307886Y-86080500D01*
X91307889Y-86080500D01*
X91365785Y-86072176D01*
X91503740Y-86031669D01*
X91556945Y-86007371D01*
X91564242Y-86002682D01*
X91588323Y-85987206D01*
X91677899Y-85929639D01*
X91722105Y-85891334D01*
X91791202Y-85811590D01*
X91816250Y-85782684D01*
X91816252Y-85782681D01*
X91816259Y-85782673D01*
X91847881Y-85733468D01*
X91847884Y-85733460D01*
X91847887Y-85733456D01*
X91882769Y-85657075D01*
X91907609Y-85602683D01*
X91921498Y-85555381D01*
X91935477Y-85524352D01*
X91966789Y-85474522D01*
X91976065Y-85448013D01*
X111122000Y-85448013D01*
X111122000Y-85573000D01*
X112272000Y-85573000D01*
X112772000Y-85573000D01*
X113921999Y-85573000D01*
X113921999Y-85448028D01*
X113921998Y-85448013D01*
X113911505Y-85345302D01*
X113856358Y-85178880D01*
X113856356Y-85178875D01*
X113764315Y-85029654D01*
X113640345Y-84905684D01*
X113491124Y-84813643D01*
X113491119Y-84813641D01*
X113324697Y-84758494D01*
X113324690Y-84758493D01*
X113221986Y-84748000D01*
X112772000Y-84748000D01*
X112772000Y-85573000D01*
X112272000Y-85573000D01*
X112272000Y-84748000D01*
X111822028Y-84748000D01*
X111822012Y-84748001D01*
X111719302Y-84758494D01*
X111552880Y-84813641D01*
X111552875Y-84813643D01*
X111403654Y-84905684D01*
X111279684Y-85029654D01*
X111187643Y-85178875D01*
X111187641Y-85178880D01*
X111132494Y-85345302D01*
X111132493Y-85345309D01*
X111122000Y-85448013D01*
X91976065Y-85448013D01*
X92026368Y-85304255D01*
X92027762Y-85291883D01*
X92046565Y-85125003D01*
X92046565Y-85124996D01*
X92026369Y-84945750D01*
X92026368Y-84945745D01*
X92019233Y-84925355D01*
X91966789Y-84775478D01*
X91935479Y-84725649D01*
X91921497Y-84694616D01*
X91907609Y-84647317D01*
X91879673Y-84586146D01*
X91847887Y-84516543D01*
X91847878Y-84516527D01*
X91839275Y-84503141D01*
X91816259Y-84467327D01*
X91816255Y-84467322D01*
X91816250Y-84467315D01*
X91750362Y-84391276D01*
X91722105Y-84358666D01*
X91677899Y-84320361D01*
X91669213Y-84314778D01*
X91623460Y-84261975D01*
X91616481Y-84242562D01*
X91609207Y-84215413D01*
X91556480Y-84124087D01*
X91481913Y-84049520D01*
X90931913Y-83499520D01*
X90885112Y-83472499D01*
X90840589Y-83446793D01*
X90789657Y-83433146D01*
X90738727Y-83419500D01*
X90738726Y-83419500D01*
X88046401Y-83419500D01*
X87979362Y-83399815D01*
X87937043Y-83353954D01*
X87902253Y-83288868D01*
X87872685Y-83233550D01*
X87834181Y-83186632D01*
X87823129Y-83173165D01*
X87795816Y-83108855D01*
X87807607Y-83039987D01*
X87854760Y-82988427D01*
X87918982Y-82970500D01*
X90710725Y-82970500D01*
X90710727Y-82970500D01*
X90812588Y-82943207D01*
X90903913Y-82890480D01*
X92500294Y-81294098D01*
X92561615Y-81260615D01*
X92631307Y-81265599D01*
X92687240Y-81307471D01*
X92711657Y-81372935D01*
X92710808Y-81392778D01*
X92711382Y-81392824D01*
X92711000Y-81397681D01*
X92711000Y-81650000D01*
X93695314Y-81650000D01*
X93690920Y-81654394D01*
X93638259Y-81745606D01*
X93611000Y-81847339D01*
X93611000Y-81952661D01*
X93638259Y-82054394D01*
X93690920Y-82145606D01*
X93695314Y-82150000D01*
X92711000Y-82150000D01*
X92711000Y-82402317D01*
X92743009Y-82604417D01*
X92806244Y-82799031D01*
X92899140Y-82981349D01*
X93019417Y-83146894D01*
X93019417Y-83146895D01*
X93164104Y-83291582D01*
X93329650Y-83411859D01*
X93511968Y-83504754D01*
X93706578Y-83567988D01*
X93761000Y-83576607D01*
X93761000Y-82215686D01*
X93765394Y-82220080D01*
X93856606Y-82272741D01*
X93958339Y-82300000D01*
X94063661Y-82300000D01*
X94165394Y-82272741D01*
X94256606Y-82220080D01*
X94261000Y-82215686D01*
X94261000Y-83576606D01*
X94315421Y-83567988D01*
X94510031Y-83504754D01*
X94692349Y-83411859D01*
X94857894Y-83291582D01*
X94857895Y-83291582D01*
X95002582Y-83146895D01*
X95002582Y-83146894D01*
X95122859Y-82981349D01*
X95215755Y-82799031D01*
X95278990Y-82604417D01*
X95308875Y-82415731D01*
X95338804Y-82352596D01*
X95398116Y-82315665D01*
X95467978Y-82316663D01*
X95526211Y-82355273D01*
X95552965Y-82410937D01*
X95588947Y-82591829D01*
X95588950Y-82591839D01*
X95664364Y-82773907D01*
X95664371Y-82773920D01*
X95773860Y-82937781D01*
X95773863Y-82937785D01*
X95913214Y-83077136D01*
X95913218Y-83077139D01*
X96077079Y-83186628D01*
X96077092Y-83186635D01*
X96216918Y-83244552D01*
X96259165Y-83262051D01*
X96259169Y-83262051D01*
X96259170Y-83262052D01*
X96452456Y-83300500D01*
X96452459Y-83300500D01*
X96649543Y-83300500D01*
X96779582Y-83274632D01*
X96842835Y-83262051D01*
X96983655Y-83203721D01*
X97024907Y-83186635D01*
X97024907Y-83186634D01*
X97024914Y-83186632D01*
X97188782Y-83077139D01*
X97328139Y-82937782D01*
X97437632Y-82773914D01*
X97513051Y-82591835D01*
X97526965Y-82521883D01*
X97551500Y-82398543D01*
X98090499Y-82398543D01*
X98128947Y-82591829D01*
X98128950Y-82591839D01*
X98204364Y-82773907D01*
X98204371Y-82773920D01*
X98313860Y-82937781D01*
X98313863Y-82937785D01*
X98453214Y-83077136D01*
X98453218Y-83077139D01*
X98617079Y-83186628D01*
X98617092Y-83186635D01*
X98756918Y-83244552D01*
X98799165Y-83262051D01*
X98799169Y-83262051D01*
X98799170Y-83262052D01*
X98992456Y-83300500D01*
X98992459Y-83300500D01*
X99189543Y-83300500D01*
X99319582Y-83274632D01*
X99382835Y-83262051D01*
X99523655Y-83203721D01*
X99564907Y-83186635D01*
X99564907Y-83186634D01*
X99564914Y-83186632D01*
X99728782Y-83077139D01*
X99868139Y-82937782D01*
X99977632Y-82773914D01*
X100053051Y-82591835D01*
X100066965Y-82521883D01*
X100091500Y-82398543D01*
X100630499Y-82398543D01*
X100668947Y-82591829D01*
X100668950Y-82591839D01*
X100744364Y-82773907D01*
X100744371Y-82773920D01*
X100853860Y-82937781D01*
X100853863Y-82937785D01*
X100993214Y-83077136D01*
X100993218Y-83077139D01*
X101157079Y-83186628D01*
X101157092Y-83186635D01*
X101296918Y-83244552D01*
X101339165Y-83262051D01*
X101339169Y-83262051D01*
X101339170Y-83262052D01*
X101532456Y-83300500D01*
X101532459Y-83300500D01*
X101729543Y-83300500D01*
X101859582Y-83274632D01*
X101922835Y-83262051D01*
X102063655Y-83203721D01*
X102104907Y-83186635D01*
X102104907Y-83186634D01*
X102104914Y-83186632D01*
X102268782Y-83077139D01*
X102408139Y-82937782D01*
X102517632Y-82773914D01*
X102593051Y-82591835D01*
X102606965Y-82521883D01*
X102631500Y-82398543D01*
X103170499Y-82398543D01*
X103208947Y-82591829D01*
X103208950Y-82591839D01*
X103284364Y-82773907D01*
X103284371Y-82773920D01*
X103393860Y-82937781D01*
X103393863Y-82937785D01*
X103533214Y-83077136D01*
X103533218Y-83077139D01*
X103697079Y-83186628D01*
X103697092Y-83186635D01*
X103836918Y-83244552D01*
X103879165Y-83262051D01*
X103879169Y-83262051D01*
X103879170Y-83262052D01*
X104072456Y-83300500D01*
X104072459Y-83300500D01*
X104269543Y-83300500D01*
X104399582Y-83274632D01*
X104462835Y-83262051D01*
X104603655Y-83203721D01*
X104644907Y-83186635D01*
X104644907Y-83186634D01*
X104644914Y-83186632D01*
X104808782Y-83077139D01*
X104948139Y-82937782D01*
X105057632Y-82773914D01*
X105133051Y-82591835D01*
X105146965Y-82521883D01*
X105171500Y-82398543D01*
X105710499Y-82398543D01*
X105748947Y-82591829D01*
X105748950Y-82591839D01*
X105824364Y-82773907D01*
X105824371Y-82773920D01*
X105933860Y-82937781D01*
X105933863Y-82937785D01*
X106073214Y-83077136D01*
X106073218Y-83077139D01*
X106237079Y-83186628D01*
X106237092Y-83186635D01*
X106376918Y-83244552D01*
X106419165Y-83262051D01*
X106419169Y-83262051D01*
X106419170Y-83262052D01*
X106612456Y-83300500D01*
X106612459Y-83300500D01*
X106809543Y-83300500D01*
X106939582Y-83274632D01*
X107002835Y-83262051D01*
X107143655Y-83203721D01*
X107184907Y-83186635D01*
X107184907Y-83186634D01*
X107184914Y-83186632D01*
X107348782Y-83077139D01*
X107488139Y-82937782D01*
X107597632Y-82773914D01*
X107673051Y-82591835D01*
X107686965Y-82521883D01*
X107711500Y-82398543D01*
X107711500Y-81401456D01*
X107673052Y-81208170D01*
X107673051Y-81208169D01*
X107673051Y-81208165D01*
X107654136Y-81162500D01*
X107597635Y-81026092D01*
X107597628Y-81026079D01*
X107488139Y-80862218D01*
X107488136Y-80862214D01*
X107348785Y-80722863D01*
X107348781Y-80722860D01*
X107285006Y-80680247D01*
X108250500Y-80680247D01*
X108250500Y-83119752D01*
X108262131Y-83178229D01*
X108262132Y-83178230D01*
X108306447Y-83244552D01*
X108372769Y-83288867D01*
X108372770Y-83288868D01*
X108431247Y-83300499D01*
X108431250Y-83300500D01*
X108431252Y-83300500D01*
X110070750Y-83300500D01*
X110070751Y-83300499D01*
X110085568Y-83297552D01*
X110129229Y-83288868D01*
X110129229Y-83288867D01*
X110129231Y-83288867D01*
X110195552Y-83244552D01*
X110239867Y-83178231D01*
X110239867Y-83178229D01*
X110239868Y-83178229D01*
X110251499Y-83119752D01*
X110251500Y-83119750D01*
X110251500Y-80680249D01*
X110251499Y-80680247D01*
X110239868Y-80621770D01*
X110239867Y-80621769D01*
X110195552Y-80555447D01*
X110129230Y-80511132D01*
X110129229Y-80511131D01*
X110070752Y-80499500D01*
X110070748Y-80499500D01*
X108431252Y-80499500D01*
X108431247Y-80499500D01*
X108372770Y-80511131D01*
X108372769Y-80511132D01*
X108306447Y-80555447D01*
X108262132Y-80621769D01*
X108262131Y-80621770D01*
X108250500Y-80680247D01*
X107285006Y-80680247D01*
X107184920Y-80613371D01*
X107184907Y-80613364D01*
X107002839Y-80537950D01*
X107002829Y-80537947D01*
X106809543Y-80499500D01*
X106809541Y-80499500D01*
X106612459Y-80499500D01*
X106612457Y-80499500D01*
X106419170Y-80537947D01*
X106419160Y-80537950D01*
X106237092Y-80613364D01*
X106237079Y-80613371D01*
X106073218Y-80722860D01*
X106073214Y-80722863D01*
X105933863Y-80862214D01*
X105933860Y-80862218D01*
X105824371Y-81026079D01*
X105824364Y-81026092D01*
X105748950Y-81208160D01*
X105748947Y-81208170D01*
X105710500Y-81401456D01*
X105710500Y-81401459D01*
X105710500Y-82398541D01*
X105710500Y-82398543D01*
X105710499Y-82398543D01*
X105171500Y-82398543D01*
X105171500Y-81401456D01*
X105133052Y-81208170D01*
X105133051Y-81208169D01*
X105133051Y-81208165D01*
X105114136Y-81162500D01*
X105057635Y-81026092D01*
X105057628Y-81026079D01*
X104948139Y-80862218D01*
X104948136Y-80862214D01*
X104808785Y-80722863D01*
X104808781Y-80722860D01*
X104644920Y-80613371D01*
X104644907Y-80613364D01*
X104462839Y-80537950D01*
X104462829Y-80537947D01*
X104269543Y-80499500D01*
X104269541Y-80499500D01*
X104072459Y-80499500D01*
X104072457Y-80499500D01*
X103879170Y-80537947D01*
X103879160Y-80537950D01*
X103697092Y-80613364D01*
X103697079Y-80613371D01*
X103533218Y-80722860D01*
X103533214Y-80722863D01*
X103393863Y-80862214D01*
X103393860Y-80862218D01*
X103284371Y-81026079D01*
X103284364Y-81026092D01*
X103208950Y-81208160D01*
X103208947Y-81208170D01*
X103170500Y-81401456D01*
X103170500Y-81401459D01*
X103170500Y-82398541D01*
X103170500Y-82398543D01*
X103170499Y-82398543D01*
X102631500Y-82398543D01*
X102631500Y-81401456D01*
X102593052Y-81208170D01*
X102593051Y-81208169D01*
X102593051Y-81208165D01*
X102574136Y-81162500D01*
X102517635Y-81026092D01*
X102517628Y-81026079D01*
X102408139Y-80862218D01*
X102408136Y-80862214D01*
X102268785Y-80722863D01*
X102268781Y-80722860D01*
X102104920Y-80613371D01*
X102104907Y-80613364D01*
X101922839Y-80537950D01*
X101922829Y-80537947D01*
X101729543Y-80499500D01*
X101729541Y-80499500D01*
X101532459Y-80499500D01*
X101532457Y-80499500D01*
X101339170Y-80537947D01*
X101339160Y-80537950D01*
X101157092Y-80613364D01*
X101157079Y-80613371D01*
X100993218Y-80722860D01*
X100993214Y-80722863D01*
X100853863Y-80862214D01*
X100853860Y-80862218D01*
X100744371Y-81026079D01*
X100744364Y-81026092D01*
X100668950Y-81208160D01*
X100668947Y-81208170D01*
X100630500Y-81401456D01*
X100630500Y-81401459D01*
X100630500Y-82398541D01*
X100630500Y-82398543D01*
X100630499Y-82398543D01*
X100091500Y-82398543D01*
X100091500Y-81401456D01*
X100053052Y-81208170D01*
X100053051Y-81208169D01*
X100053051Y-81208165D01*
X100034136Y-81162500D01*
X99977635Y-81026092D01*
X99977628Y-81026079D01*
X99868139Y-80862218D01*
X99868136Y-80862214D01*
X99728785Y-80722863D01*
X99728781Y-80722860D01*
X99564920Y-80613371D01*
X99564907Y-80613364D01*
X99382839Y-80537950D01*
X99382829Y-80537947D01*
X99189543Y-80499500D01*
X99189541Y-80499500D01*
X98992459Y-80499500D01*
X98992457Y-80499500D01*
X98799170Y-80537947D01*
X98799160Y-80537950D01*
X98617092Y-80613364D01*
X98617079Y-80613371D01*
X98453218Y-80722860D01*
X98453214Y-80722863D01*
X98313863Y-80862214D01*
X98313860Y-80862218D01*
X98204371Y-81026079D01*
X98204364Y-81026092D01*
X98128950Y-81208160D01*
X98128947Y-81208170D01*
X98090500Y-81401456D01*
X98090500Y-81401459D01*
X98090500Y-82398541D01*
X98090500Y-82398543D01*
X98090499Y-82398543D01*
X97551500Y-82398543D01*
X97551500Y-81401456D01*
X97513052Y-81208170D01*
X97513051Y-81208169D01*
X97513051Y-81208165D01*
X97494136Y-81162500D01*
X97437635Y-81026092D01*
X97437628Y-81026079D01*
X97328139Y-80862218D01*
X97328136Y-80862214D01*
X97188785Y-80722863D01*
X97188781Y-80722860D01*
X97024920Y-80613371D01*
X97024907Y-80613364D01*
X96842839Y-80537950D01*
X96842829Y-80537947D01*
X96649543Y-80499500D01*
X96649541Y-80499500D01*
X96452459Y-80499500D01*
X96452457Y-80499500D01*
X96259170Y-80537947D01*
X96259160Y-80537950D01*
X96077092Y-80613364D01*
X96077079Y-80613371D01*
X95913218Y-80722860D01*
X95913214Y-80722863D01*
X95773863Y-80862214D01*
X95773860Y-80862218D01*
X95664371Y-81026079D01*
X95664364Y-81026092D01*
X95588950Y-81208160D01*
X95588947Y-81208170D01*
X95552965Y-81389062D01*
X95520580Y-81450973D01*
X95459864Y-81485547D01*
X95390094Y-81481806D01*
X95333423Y-81440940D01*
X95308875Y-81384268D01*
X95278990Y-81195582D01*
X95215755Y-81000968D01*
X95122859Y-80818650D01*
X95002582Y-80653105D01*
X95002582Y-80653104D01*
X94857895Y-80508417D01*
X94692349Y-80388140D01*
X94510029Y-80295244D01*
X94315413Y-80232009D01*
X94261000Y-80223390D01*
X94261000Y-81584314D01*
X94256606Y-81579920D01*
X94165394Y-81527259D01*
X94063661Y-81500000D01*
X93958339Y-81500000D01*
X93856606Y-81527259D01*
X93765394Y-81579920D01*
X93761000Y-81584314D01*
X93761000Y-80223390D01*
X93706586Y-80232009D01*
X93511970Y-80295244D01*
X93329650Y-80388140D01*
X93164105Y-80508417D01*
X93164104Y-80508417D01*
X93068181Y-80604341D01*
X93006858Y-80637826D01*
X92937166Y-80632842D01*
X92881233Y-80590970D01*
X92856816Y-80525506D01*
X92856500Y-80516660D01*
X92856500Y-79030454D01*
X92876185Y-78963415D01*
X92928989Y-78917660D01*
X92998147Y-78907716D01*
X93061703Y-78936741D01*
X93088865Y-78974416D01*
X93090498Y-78973544D01*
X93093371Y-78978920D01*
X93202860Y-79142781D01*
X93202863Y-79142785D01*
X93342214Y-79282136D01*
X93342218Y-79282139D01*
X93506079Y-79391628D01*
X93506092Y-79391635D01*
X93681709Y-79464377D01*
X93688165Y-79467051D01*
X93688169Y-79467051D01*
X93688170Y-79467052D01*
X93881456Y-79505500D01*
X93881459Y-79505500D01*
X94078543Y-79505500D01*
X94245894Y-79472211D01*
X94271835Y-79467051D01*
X94428567Y-79402131D01*
X94453907Y-79391635D01*
X94453907Y-79391634D01*
X94453914Y-79391632D01*
X94617782Y-79282139D01*
X94757139Y-79142782D01*
X94866632Y-78978914D01*
X94868383Y-78974688D01*
X94896462Y-78906897D01*
X94942051Y-78796835D01*
X94980500Y-78603541D01*
X94980500Y-77606459D01*
X94980500Y-77606456D01*
X94942052Y-77413170D01*
X94942051Y-77413169D01*
X94942051Y-77413165D01*
X94901561Y-77315412D01*
X94866635Y-77231092D01*
X94866628Y-77231079D01*
X94757139Y-77067218D01*
X94757136Y-77067214D01*
X94629103Y-76939181D01*
X94595618Y-76877858D01*
X94600602Y-76808166D01*
X94642474Y-76752233D01*
X94707938Y-76727816D01*
X94716784Y-76727500D01*
X95783216Y-76727500D01*
X95850255Y-76747185D01*
G37*
%TD.AperFunction*%
%TA.AperFunction,Conductor*%
G36*
X118539470Y-73572185D02*
G01*
X118585225Y-73624989D01*
X118595169Y-73694147D01*
X118568285Y-73755164D01*
X118526838Y-73805668D01*
X118502315Y-73835550D01*
X118479528Y-73878181D01*
X118404769Y-74018043D01*
X118344699Y-74216067D01*
X118324417Y-74422000D01*
X118344699Y-74627932D01*
X118404769Y-74825956D01*
X118411502Y-74838554D01*
X118502315Y-75008450D01*
X118517213Y-75026603D01*
X118568285Y-75088836D01*
X118595597Y-75153146D01*
X118583806Y-75222013D01*
X118536653Y-75273573D01*
X118472431Y-75291500D01*
X91246339Y-75291500D01*
X91246323Y-75291499D01*
X91238727Y-75291499D01*
X91133273Y-75291499D01*
X91056877Y-75311969D01*
X91031411Y-75318793D01*
X91004895Y-75334102D01*
X90997787Y-75338207D01*
X90968937Y-75354863D01*
X90940088Y-75371519D01*
X90940085Y-75371521D01*
X89630522Y-76681084D01*
X89630520Y-76681087D01*
X89577791Y-76772414D01*
X89559706Y-76839914D01*
X89550500Y-76874271D01*
X89550500Y-78893859D01*
X89530815Y-78960898D01*
X89507704Y-78987570D01*
X89464898Y-79024662D01*
X89464893Y-79024667D01*
X89370749Y-79133315D01*
X89370738Y-79133331D01*
X89339121Y-79182527D01*
X89339112Y-79182543D01*
X89277551Y-79317345D01*
X89275686Y-79316493D01*
X89238872Y-79365727D01*
X89173421Y-79390179D01*
X89164509Y-79390500D01*
X81814486Y-79390500D01*
X81747447Y-79370815D01*
X81718632Y-79345164D01*
X81680410Y-79298589D01*
X81520452Y-79167317D01*
X81520453Y-79167317D01*
X81520450Y-79167315D01*
X81350554Y-79076502D01*
X81337956Y-79069769D01*
X81337955Y-79069768D01*
X81337954Y-79069768D01*
X81139934Y-79009700D01*
X81139932Y-79009699D01*
X81139934Y-79009699D01*
X80934000Y-78989417D01*
X80728067Y-79009699D01*
X80530036Y-79069771D01*
X80524836Y-79071925D01*
X80455366Y-79079388D01*
X80392889Y-79048108D01*
X80357242Y-78988016D01*
X80359742Y-78918191D01*
X80389710Y-78869681D01*
X80678427Y-78580964D01*
X80739748Y-78547481D01*
X80778260Y-78545244D01*
X80812742Y-78548639D01*
X80934000Y-78560583D01*
X81139934Y-78540300D01*
X81337954Y-78480232D01*
X81520450Y-78382685D01*
X81680410Y-78251410D01*
X81811685Y-78091450D01*
X81909232Y-77908954D01*
X81969300Y-77710934D01*
X81971707Y-77686491D01*
X81997866Y-77621704D01*
X82007420Y-77610971D01*
X86029573Y-73588819D01*
X86090896Y-73555334D01*
X86117254Y-73552500D01*
X118472431Y-73552500D01*
X118539470Y-73572185D01*
G37*
%TD.AperFunction*%
%TD*%
M02*
