%TF.GenerationSoftware,KiCad,Pcbnew,8.0.5-8.0.5-0~ubuntu22.04.1*%
%TF.CreationDate,2024-10-17T10:17:30+02:00*%
%TF.ProjectId,SerialSniffer_kicad,53657269-616c-4536-9e69-666665725f6b,rev?*%
%TF.SameCoordinates,Original*%
%TF.FileFunction,Soldermask,Bot*%
%TF.FilePolarity,Negative*%
%FSLAX46Y46*%
G04 Gerber Fmt 4.6, Leading zero omitted, Abs format (unit mm)*
G04 Created by KiCad (PCBNEW 8.0.5-8.0.5-0~ubuntu22.04.1) date 2024-10-17 10:17:30*
%MOMM*%
%LPD*%
G01*
G04 APERTURE LIST*
G04 Aperture macros list*
%AMRoundRect*
0 Rectangle with rounded corners*
0 $1 Rounding radius*
0 $2 $3 $4 $5 $6 $7 $8 $9 X,Y pos of 4 corners*
0 Add a 4 corners polygon primitive as box body*
4,1,4,$2,$3,$4,$5,$6,$7,$8,$9,$2,$3,0*
0 Add four circle primitives for the rounded corners*
1,1,$1+$1,$2,$3*
1,1,$1+$1,$4,$5*
1,1,$1+$1,$6,$7*
1,1,$1+$1,$8,$9*
0 Add four rect primitives between the rounded corners*
20,1,$1+$1,$2,$3,$4,$5,0*
20,1,$1+$1,$4,$5,$6,$7,0*
20,1,$1+$1,$6,$7,$8,$9,0*
20,1,$1+$1,$8,$9,$2,$3,0*%
%AMFreePoly0*
4,1,19,0.500000,-0.750000,0.000000,-0.750000,0.000000,-0.744911,-0.071157,-0.744911,-0.207708,-0.704816,-0.327430,-0.627875,-0.420627,-0.520320,-0.479746,-0.390866,-0.500000,-0.250000,-0.500000,0.250000,-0.479746,0.390866,-0.420627,0.520320,-0.327430,0.627875,-0.207708,0.704816,-0.071157,0.744911,0.000000,0.744911,0.000000,0.750000,0.500000,0.750000,0.500000,-0.750000,0.500000,-0.750000,
$1*%
%AMFreePoly1*
4,1,19,0.000000,0.744911,0.071157,0.744911,0.207708,0.704816,0.327430,0.627875,0.420627,0.520320,0.479746,0.390866,0.500000,0.250000,0.500000,-0.250000,0.479746,-0.390866,0.420627,-0.520320,0.327430,-0.627875,0.207708,-0.704816,0.071157,-0.744911,0.000000,-0.744911,0.000000,-0.750000,-0.500000,-0.750000,-0.500000,0.750000,0.000000,0.750000,0.000000,0.744911,0.000000,0.744911,
$1*%
G04 Aperture macros list end*
%ADD10R,1.600000X2.400000*%
%ADD11O,1.600000X2.400000*%
%ADD12C,4.000000*%
%ADD13R,1.600000X1.600000*%
%ADD14C,1.600000*%
%ADD15O,1.700000X1.700000*%
%ADD16R,1.700000X1.700000*%
%ADD17FreePoly0,270.000000*%
%ADD18FreePoly1,270.000000*%
%ADD19FreePoly0,180.000000*%
%ADD20FreePoly1,180.000000*%
%ADD21RoundRect,0.250000X0.650000X-0.325000X0.650000X0.325000X-0.650000X0.325000X-0.650000X-0.325000X0*%
G04 APERTURE END LIST*
D10*
%TO.C,J7*%
X93980000Y-93345000D03*
D11*
X96520000Y-93345000D03*
X99060000Y-93345000D03*
X101600000Y-93345000D03*
X104140000Y-93345000D03*
X106680000Y-93345000D03*
X109220000Y-93345000D03*
X111760000Y-93345000D03*
X114300000Y-93345000D03*
X116840000Y-93345000D03*
X119380000Y-93345000D03*
X121920000Y-93345000D03*
X124460000Y-93345000D03*
X127000000Y-93345000D03*
X129540000Y-93345000D03*
X132080000Y-93345000D03*
X134620000Y-93345000D03*
X137160000Y-93345000D03*
X139700000Y-93345000D03*
X142240000Y-93345000D03*
X142240000Y-78105000D03*
X139700000Y-78105000D03*
X137160000Y-78105000D03*
X134620000Y-78105000D03*
X132080000Y-78105000D03*
X129540000Y-78105000D03*
X127000000Y-78105000D03*
X124460000Y-78105000D03*
X121920000Y-78105000D03*
X119380000Y-78105000D03*
X116840000Y-78105000D03*
X114300000Y-78105000D03*
X111760000Y-78105000D03*
X109220000Y-78105000D03*
X106680000Y-78105000D03*
X104140000Y-78105000D03*
X101600000Y-78105000D03*
X99060000Y-78105000D03*
X96520000Y-78105000D03*
X93980000Y-78105000D03*
%TD*%
D12*
%TO.C,J1*%
X148994000Y-98431000D03*
X148994000Y-73431000D03*
D13*
X147574000Y-80391000D03*
D14*
X147574000Y-83161000D03*
X147574000Y-85931000D03*
X147574000Y-88701000D03*
X147574000Y-91471000D03*
X150414000Y-81776000D03*
X150414000Y-84546000D03*
X150414000Y-87316000D03*
X150414000Y-90086000D03*
%TD*%
D15*
%TO.C,J5*%
X109220000Y-99441000D03*
X106680000Y-99441000D03*
X109220000Y-96901000D03*
D16*
X106680000Y-96901000D03*
%TD*%
%TO.C,J3*%
X80934000Y-74965000D03*
D15*
X80934000Y-77505000D03*
X80934000Y-80045000D03*
X80934000Y-82585000D03*
X80934000Y-85125000D03*
X80934000Y-87665000D03*
X80934000Y-90205000D03*
X80934000Y-92745000D03*
X80934000Y-95285000D03*
X80934000Y-97825000D03*
%TD*%
D12*
%TO.C,J2*%
X74180000Y-73466000D03*
X74180000Y-98466000D03*
D13*
X75600000Y-80426000D03*
D14*
X75600000Y-83196000D03*
X75600000Y-85966000D03*
X75600000Y-88736000D03*
X75600000Y-91506000D03*
X72760000Y-81811000D03*
X72760000Y-84581000D03*
X72760000Y-87351000D03*
X72760000Y-90121000D03*
%TD*%
D16*
%TO.C,J6*%
X119380000Y-71882000D03*
D15*
X121920000Y-71882000D03*
X119380000Y-74422000D03*
X121920000Y-74422000D03*
%TD*%
D16*
%TO.C,J8*%
X113157000Y-96901000D03*
D15*
X115697000Y-96901000D03*
X113157000Y-99441000D03*
X115697000Y-99441000D03*
%TD*%
D10*
%TO.C,U1*%
X109251000Y-81900000D03*
D11*
X106711000Y-81900000D03*
X104171000Y-81900000D03*
X101631000Y-81900000D03*
X99091000Y-81900000D03*
X96551000Y-81900000D03*
X94011000Y-81900000D03*
X94011000Y-89520000D03*
X96551000Y-89520000D03*
X99091000Y-89520000D03*
X101631000Y-89520000D03*
X104171000Y-89520000D03*
X106711000Y-89520000D03*
X109251000Y-89520000D03*
%TD*%
D16*
%TO.C,J4*%
X86995000Y-81280000D03*
D15*
X86995000Y-83820000D03*
%TD*%
D17*
%TO.C,JP1*%
X86360000Y-97790000D03*
D18*
X86360000Y-99090000D03*
%TD*%
D19*
%TO.C,JP2*%
X91251000Y-79791000D03*
D20*
X89951000Y-79791000D03*
%TD*%
D19*
%TO.C,JP3*%
X91236000Y-85125000D03*
D20*
X89936000Y-85125000D03*
%TD*%
D21*
%TO.C,C1*%
X112522000Y-88773000D03*
X112522000Y-85823000D03*
%TD*%
M02*
